<svg viewBox="0 0 1068 400" xmlns="http://www.w3.org/2000/svg"><g><g><g><g><g><line x1="59.98000144958496" y1="378.6199998855591" x2="54.98000144958496" y2="378.6199998855591" style="visibility: inherit;" fill="rgb(0, 0, 0)" stroke="rgb(204, 204, 204)" stroke-width="1px"></line><line x1="59.98000144958496" y1="340.7579998970032" x2="54.98000144958496" y2="340.7579998970032" style="visibility: inherit;" fill="rgb(0, 0, 0)" stroke="rgb(204, 204, 204)" stroke-width="1px"></line><line x1="59.98000144958496" y1="302.89599990844727" x2="54.98000144958496" y2="302.89599990844727" style="visibility: inherit;" fill="rgb(0, 0, 0)" stroke="rgb(204, 204, 204)" stroke-width="1px"></line><line x1="59.98000144958496" y1="265.03399991989136" x2="54.98000144958496" y2="265.03399991989136" style="visibility: inherit;" fill="rgb(0, 0, 0)" stroke="rgb(204, 204, 204)" stroke-width="1px"></line><line x1="59.98000144958496" y1="227.17199993133545" x2="54.98000144958496" y2="227.17199993133545" style="visibility: inherit;" fill="rgb(0, 0, 0)" stroke="rgb(204, 204, 204)" stroke-width="1px"></line><line x1="59.98000144958496" y1="189.30999994277954" x2="54.98000144958496" y2="189.30999994277954" style="visibility: inherit;" fill="rgb(0, 0, 0)" stroke="rgb(204, 204, 204)" stroke-width="1px"></line><line x1="59.98000144958496" y1="151.44799995422363" x2="54.98000144958496" y2="151.44799995422363" style="visibility: inherit;" fill="rgb(0, 0, 0)" stroke="rgb(204, 204, 204)" stroke-width="1px"></line><line x1="59.98000144958496" y1="113.58599996566772" x2="54.98000144958496" y2="113.58599996566772" style="visibility: inherit;" fill="rgb(0, 0, 0)" stroke="rgb(204, 204, 204)" stroke-width="1px"></line><line x1="59.98000144958496" y1="75.72399997711182" x2="54.98000144958496" y2="75.72399997711182" style="visibility: inherit;" fill="rgb(0, 0, 0)" stroke="rgb(204, 204, 204)" stroke-width="1px"></line><line x1="59.98000144958496" y1="37.86199998855591" x2="54.98000144958496" y2="37.86199998855591" style="visibility: inherit;" fill="rgb(0, 0, 0)" stroke="rgb(204, 204, 204)" stroke-width="1px"></line><line x1="59.98000144958496" y1="0" x2="54.98000144958496" y2="0" style="visibility: inherit;" fill="rgb(0, 0, 0)" stroke="rgb(204, 204, 204)" stroke-width="1px"></line></g><g transform="translate(49.98000144958496, 0)"><text style="text-anchor: end; visibility: hidden; font-family: &quot;Helvetica Neue&quot;, sans-serif; font-size: 12px; font-weight: 200;" x="0" y="378.6199998855591" dx="0em" dy="0.3em" fill="rgb(50, 49, 63)" stroke="none" stroke-width="1px">-0.05</text><text style="text-anchor: end; visibility: inherit; font-family: &quot;Helvetica Neue&quot;, sans-serif; font-size: 12px; font-weight: 200;" x="0" y="340.7579998970032" dx="0em" dy="0.3em" fill="rgb(50, 49, 63)" stroke="none" stroke-width="1px">0</text><text style="text-anchor: end; visibility: inherit; font-family: &quot;Helvetica Neue&quot;, sans-serif; font-size: 12px; font-weight: 200;" x="0" y="302.89599990844727" dx="0em" dy="0.3em" fill="rgb(50, 49, 63)" stroke="none" stroke-width="1px">0.05</text><text style="text-anchor: end; visibility: inherit; font-family: &quot;Helvetica Neue&quot;, sans-serif; font-size: 12px; font-weight: 200;" x="0" y="265.03399991989136" dx="0em" dy="0.3em" fill="rgb(50, 49, 63)" stroke="none" stroke-width="1px">0.1</text><text style="text-anchor: end; visibility: inherit; font-family: &quot;Helvetica Neue&quot;, sans-serif; font-size: 12px; font-weight: 200;" x="0" y="227.17199993133545" dx="0em" dy="0.3em" fill="rgb(50, 49, 63)" stroke="none" stroke-width="1px">0.15</text><text style="text-anchor: end; visibility: inherit; font-family: &quot;Helvetica Neue&quot;, sans-serif; font-size: 12px; font-weight: 200;" x="0" y="189.30999994277954" dx="0em" dy="0.3em" fill="rgb(50, 49, 63)" stroke="none" stroke-width="1px">0.2</text><text style="text-anchor: end; visibility: inherit; font-family: &quot;Helvetica Neue&quot;, sans-serif; font-size: 12px; font-weight: 200;" x="0" y="151.44799995422363" dx="0em" dy="0.3em" fill="rgb(50, 49, 63)" stroke="none" stroke-width="1px">0.25</text><text style="text-anchor: end; visibility: inherit; font-family: &quot;Helvetica Neue&quot;, sans-serif; font-size: 12px; font-weight: 200;" x="0" y="113.58599996566772" dx="0em" dy="0.3em" fill="rgb(50, 49, 63)" stroke="none" stroke-width="1px">0.3</text><text style="text-anchor: end; visibility: inherit; font-family: &quot;Helvetica Neue&quot;, sans-serif; font-size: 12px; font-weight: 200;" x="0" y="75.72399997711182" dx="0em" dy="0.3em" fill="rgb(50, 49, 63)" stroke="none" stroke-width="1px">0.35</text><text style="text-anchor: end; visibility: inherit; font-family: &quot;Helvetica Neue&quot;, sans-serif; font-size: 12px; font-weight: 200;" x="0" y="37.86199998855591" dx="0em" dy="0.3em" fill="rgb(50, 49, 63)" stroke="none" stroke-width="1px">0.4</text><text style="text-anchor: end; visibility: hidden; font-family: &quot;Helvetica Neue&quot;, sans-serif; font-size: 12px; font-weight: 200;" x="0" y="0" dx="0em" dy="0.3em" fill="rgb(50, 49, 63)" stroke="none" stroke-width="1px">0.45</text></g><line x1="59.98000144958496" y1="0" x2="59.98000144958496" y2="378.6199998855591" fill="rgb(0, 0, 0)" stroke="rgb(204, 204, 204)" stroke-width="1px"></line></g></g><g transform="translate(59, 0)" clip-path="url(#clip_0)"><clipPath id="clip_0"><rect width="1008" height="378"></rect></clipPath><g><g><g><line x1="0" y1="0" x2="0" y2="378.6199998855591" fill="rgb(0, 0, 0)" stroke="rgb(60, 60, 60)" stroke-width="1px" opacity="0.25"></line><line x1="84.00166654586792" y1="0" x2="84.00166654586792" y2="378.6199998855591" fill="rgb(0, 0, 0)" stroke="rgb(60, 60, 60)" stroke-width="1px" opacity="0.25"></line><line x1="168.00333309173584" y1="0" x2="168.00333309173584" y2="378.6199998855591" fill="rgb(0, 0, 0)" stroke="rgb(60, 60, 60)" stroke-width="1px" opacity="0.25"></line><line x1="252.00499963760376" y1="0" x2="252.00499963760376" y2="378.6199998855591" fill="rgb(0, 0, 0)" stroke="rgb(60, 60, 60)" stroke-width="1px" opacity="0.25"></line><line x1="336.0066661834717" y1="0" x2="336.0066661834717" y2="378.6199998855591" fill="rgb(0, 0, 0)" stroke="rgb(60, 60, 60)" stroke-width="1px" opacity="0.25"></line><line x1="420.0083327293396" y1="0" x2="420.0083327293396" y2="378.6199998855591" fill="rgb(0, 0, 0)" stroke="rgb(60, 60, 60)" stroke-width="1px" opacity="0.25"></line><line x1="504.0099992752075" y1="0" x2="504.0099992752075" y2="378.6199998855591" fill="rgb(0, 0, 0)" stroke="rgb(60, 60, 60)" stroke-width="1px" opacity="0.25"></line><line x1="588.0116658210754" y1="0" x2="588.0116658210754" y2="378.6199998855591" fill="rgb(0, 0, 0)" stroke="rgb(60, 60, 60)" stroke-width="1px" opacity="0.25"></line><line x1="672.0133323669434" y1="0" x2="672.0133323669434" y2="378.6199998855591" fill="rgb(0, 0, 0)" stroke="rgb(60, 60, 60)" stroke-width="1px" opacity="0.25"></line><line x1="756.0149989128113" y1="0" x2="756.0149989128113" y2="378.6199998855591" fill="rgb(0, 0, 0)" stroke="rgb(60, 60, 60)" stroke-width="1px" opacity="0.25"></line><line x1="840.0166654586792" y1="0" x2="840.0166654586792" y2="378.6199998855591" fill="rgb(0, 0, 0)" stroke="rgb(60, 60, 60)" stroke-width="1px" opacity="0.25"></line><line x1="924.0183320045471" y1="0" x2="924.0183320045471" y2="378.6199998855591" fill="rgb(0, 0, 0)" stroke="rgb(60, 60, 60)" stroke-width="1px" opacity="0.25"></line><line x1="1008.019998550415" y1="0" x2="1008.019998550415" y2="378.6199998855591" fill="rgb(0, 0, 0)" stroke="rgb(60, 60, 60)" stroke-width="1px" opacity="0.25"></line></g><g><line x1="0" y1="378.6199998855591" x2="1008.019998550415" y2="378.6199998855591" fill="rgb(0, 0, 0)" stroke="rgb(60, 60, 60)" stroke-width="1px" opacity="0.25"></line><line x1="0" y1="340.7579998970032" x2="1008.019998550415" y2="340.7579998970032" fill="rgb(0, 0, 0)" stroke="rgb(60, 60, 60)" stroke-width="1px" opacity="0.25"></line><line x1="0" y1="302.89599990844727" x2="1008.019998550415" y2="302.89599990844727" fill="rgb(0, 0, 0)" stroke="rgb(60, 60, 60)" stroke-width="1px" opacity="0.25"></line><line x1="0" y1="265.03399991989136" x2="1008.019998550415" y2="265.03399991989136" fill="rgb(0, 0, 0)" stroke="rgb(60, 60, 60)" stroke-width="1px" opacity="0.25"></line><line x1="0" y1="227.17199993133545" x2="1008.019998550415" y2="227.17199993133545" fill="rgb(0, 0, 0)" stroke="rgb(60, 60, 60)" stroke-width="1px" opacity="0.25"></line><line x1="0" y1="189.30999994277954" x2="1008.019998550415" y2="189.30999994277954" fill="rgb(0, 0, 0)" stroke="rgb(60, 60, 60)" stroke-width="1px" opacity="0.25"></line><line x1="0" y1="151.44799995422363" x2="1008.019998550415" y2="151.44799995422363" fill="rgb(0, 0, 0)" stroke="rgb(60, 60, 60)" stroke-width="1px" opacity="0.25"></line><line x1="0" y1="113.58599996566772" x2="1008.019998550415" y2="113.58599996566772" fill="rgb(0, 0, 0)" stroke="rgb(60, 60, 60)" stroke-width="1px" opacity="0.25"></line><line x1="0" y1="75.72399997711182" x2="1008.019998550415" y2="75.72399997711182" fill="rgb(0, 0, 0)" stroke="rgb(60, 60, 60)" stroke-width="1px" opacity="0.25"></line><line x1="0" y1="37.86199998855591" x2="1008.019998550415" y2="37.86199998855591" fill="rgb(0, 0, 0)" stroke="rgb(60, 60, 60)" stroke-width="1px" opacity="0.25"></line><line x1="0" y1="0" x2="1008.019998550415" y2="0" fill="rgb(0, 0, 0)" stroke="rgb(60, 60, 60)" stroke-width="1px" opacity="0.25"></line></g></g></g><g><g><line x1="0" y1="340.7579998970032" x2="1008.019998550415" y2="340.7579998970032" fill="rgb(0, 0, 0)" stroke="rgb(153, 153, 153)" stroke-width="1.5px"></line></g></g><g><g><line x1="84.00166654586792" y1="0" x2="84.00166654586792" y2="378.6199998855591" fill="rgb(0, 0, 0)" stroke="rgb(153, 153, 153)" stroke-width="1.5px"></line></g></g><g><g><g><g><g><path style="fill: none;" stroke="rgb(0, 119, 187)" stroke-width="2px" d="M84.00166654586792,320.0008126850582L92.4018332004547,282.90338846023803L100.80199985504152,237.33281988673275L109.2021665096283,202.29598949692303L117.6023331642151,180.8403796894277L126.00249981880188,166.90341444447475L134.40266647338868,157.56458098334934L142.80283312797545,151.07273034621318L151.20299978256224,147.06374885750768L159.60316643714904,143.97658380608416L168.00333309173584,141.73620015563765L176.4034997463226,139.5980432897283L184.8036664009094,138.44845337518925L193.20383305549623,137.20822966797908L201.60399971008303,136.74254610858787L210.0041663646698,136.51669497236168L218.4043330192566,135.99265509482103L226.8044996738434,135.09080500502336L235.2046663284302,134.52217439498995L243.60483298301696,134.19790834828106L252.00499963760376,134.1205203663006L260.4051662921906,133.87943680917562L268.80533294677736,133.48449498256784L277.2054996013642,133.60560775661358L285.6056662559509,133.35743635693385L294.0058329105377,133.02013104182663L302.4059995651245,132.68230691077855L310.8061662197113,132.56294098073977L319.2063328742981,132.4432075193068L327.6064995288849,132.42702799112573L336.0066661834717,132.55125395616906L344.4068328380585,132.38244855200608L352.8069994926452,132.58918477146537L361.20716614723204,131.82072656212054L369.6073328018188,132.18411504295798L378.00749945640564,131.70606679639266L386.40766611099247,131.49288015264844L394.80783276557924,131.208503102187L403.20799942016606,131.4789272736923L411.6081660747528,131.33905697092385L420.0083327293396,131.53475527292056L428.40849938392637,131.45570150665708L436.8086660385132,131.18406554256924L445.20883269309996,131.59951634190733L453.6089993476868,130.6957675698694L462.00916600227356,131.14190305492852L470.4093326568604,131.27368279711968L478.8094993114471,131.94944464966096L487.2096659660339,131.77433901052737L495.6098326206207,131.2990330481743L504.0099992752075,131.13602094613904L512.4101659297943,130.4223553477004L520.8103325843812,130.94125121941016L529.2104992389679,131.12976732275655L537.6106658935547,130.85557336788054L546.0108325481415,130.5211778021771L554.4109992027284,130.22155033426793L562.8111658573151,130.51070866974126L571.2113325119018,130.75775570156637L579.6114991664886,130.63768330066347L588.0116658210754,130.15428830394492L596.4118324756622,129.8947264722254L604.811999130249,130.51160163902384L613.2121657848357,130.5650774843997L621.6123324394226,130.34247509402005L630.0124990940094,130.440943776757L638.4126657485962,129.95496544343115L646.812832403183,129.2267512753891L655.2129990577698,129.58305271807637L663.6131657123566,129.73136974894592L672.0133323669434,129.60019133407323L680.4134990215302,129.76468983336252L688.813665676117,129.976253566939L697.2138323307037,129.69299570745076L705.6139989852904,129.4125865678868L714.0141656398773,129.20238356844447L722.4143322944641,128.89807773210129L730.8144989490509,129.37801315242407L739.2146656036376,129.44742160498208L747.6148322582245,130.01969203970637L756.0149989128113,129.7341699962076L764.415165567398,129.94299294562592L772.8153322219849,130.44068674816148L781.2154988765717,130.07713616071945L789.6156655311585,130.0789487665427L798.0158321857452,130.1408602846005L806.4159988403321,130.203246699288L814.8161654949189,129.99603770621357L823.2163321495055,129.93708587506927L831.6164988040923,129.92733341441357L840.0166654586792,130.17190006262027L848.416832113266,130.05287601973754L856.8169987678527,129.84292415994864L865.2171654224395,129.5410077044488L873.6173320770264,129.34324814334875L882.0174987316132,129.09640894649183L890.4176653861999,128.89479334724766L898.8178320407868,129.2723764048287L907.2179986953736,129.2087351340993L915.6181653499603,129.41121030467914" fill="none"></path></g><g><path style="fill: none;" stroke="rgb(255, 112, 67)" stroke-width="2px" d="M84.00166654586792,284.48837772133027L92.4018332004547,204.4269708971361L100.80199985504152,149.16565330748912L109.2021665096283,120.62596816306137L117.6023331642151,103.88960950066945L126.00249981880188,93.48010757522746L134.40266647338868,86.94686214016116L142.80283312797545,82.64563321326364L151.20299978256224,79.83047617587209L159.60316643714904,77.96451528520606L168.00333309173584,76.77882821164769L176.4034997463226,75.90114653613557L184.8036664009094,75.25191209547296L193.20383305549623,74.80103106812606L201.60399971008303,74.353544583271L210.0041663646698,74.11612263096526L218.4043330192566,74.01025983304908L226.8044996738434,73.75558739404738L235.2046663284302,73.61403979010498L243.60483298301696,73.4953815999072L252.00499963760376,73.34548128580258L260.4051662921906,73.18808351131952L268.80533294677736,73.17797711211557L277.2054996013642,73.14098666060801L285.6056662559509,73.16938900448781L294.0058329105377,73.07398980252975L302.4059995651245,72.9549063161648L310.8061662197113,72.90595161072798L319.2063328742981,72.78380824995781L327.6064995288849,72.78361393178216L336.0066661834717,72.71602950227117L344.4068328380585,72.63050631160297L352.8069994926452,72.65509145682586L361.20716614723204,72.51523703717362L369.6073328018188,72.4819207475773L378.00749945640564,72.45068332678801L386.40766611099247,72.41507843049737L394.80783276557924,72.44993567547465L403.20799942016606,72.47085002237822L411.6081660747528,72.37658208918504L420.0083327293396,72.34250759692776L428.40849938392637,72.26584271916198L436.8086660385132,72.24233006009251L445.20883269309996,72.24508490857693L453.6089993476868,72.2130129298261L462.00916600227356,72.19938453921486L470.4093326568604,72.11250105488398L478.8094993114471,72.05756356596908L487.2096659660339,72.05551856214066L495.6098326206207,72.08802547468582L504.0099992752075,72.07098830905221L512.4101659297943,72.13384863599305L520.8103325843812,72.15750978655689L529.2104992389679,72.18857794781832L537.6106658935547,72.2297051121351L546.0108325481415,72.21502367224213L554.4109992027284,72.11345331274413L562.8111658573151,72.10873127944717L571.2113325119018,72.06654032098606L579.6114991664886,71.97095051790711L588.0116658210754,71.97263324378417L596.4118324756622,72.06640437487266L604.811999130249,72.01303408704041L613.2121657848357,71.98101191434108L621.6123324394226,71.99553252556348L630.0124990940094,71.96207975549544L638.4126657485962,71.91952182589478L646.812832403183,71.81246419285003L655.2129990577698,71.7903947498246L663.6131657123566,71.88116222685352L672.0133323669434,71.93281531475247L680.4134990215302,71.87103664492543L688.813665676117,71.90425369803575L697.2138323307037,71.9354225501798L705.6139989852904,71.97942655434872L714.0141656398773,71.9749024403265L722.4143322944641,71.96094935163535L730.8144989490509,71.92165098189713L739.2146656036376,71.92899847657776L747.6148322582245,71.90248045686252L756.0149989128113,71.86689980279618L764.415165567398,71.83992758671536L772.8153322219849,71.81530400810317L781.2154988765717,71.79209863897643L789.6156655311585,71.73601028069902L798.0158321857452,71.6826783964911L806.4159988403321,71.70971587369081L814.8161654949189,71.63317686444844L823.2163321495055,71.64628103962326L831.6164988040923,71.65133614640973L840.0166654586792,71.73307566044338L848.416832113266,71.70902771553864L856.8169987678527,71.74520433436078L865.2171654224395,71.73035996548953L873.6173320770264,71.69896707660689L882.0174987316132,71.66607629767685L890.4176653861999,71.69975461440225L898.8178320407868,71.67217264399511L907.2179986953736,71.61908214859051L915.6181653499603,71.61814534086699" fill="none"></path></g></g></g></g><g opacity="0.2"><g><g><g><path style="fill: none;" stroke="rgb(0, 119, 187)" stroke-width="2px" d="M84.00166654586792,320.0008126850582L92.4018332004547,260.644933925346L100.80199985504152,193.58507405616766L109.2021665096283,161.0926769585068L117.6023331642151,152.8279355247618L126.00249981880188,147.62357420321666L134.40266647338868,144.20989971260457L142.80283312797545,141.6075497955025L151.20299978256224,141.1512798662314L159.60316643714904,139.39250349528396L168.00333309173584,138.39594479478524L176.4034997463226,136.40244374610762L184.8036664009094,136.72782211391012L193.20383305549623,135.35032383451653L201.60399971008303,136.04456816304395L210.0041663646698,136.17807755574194L218.4043330192566,135.2068170346236L226.8044996738434,133.73825884996694L235.2046663284302,133.66931510508994L243.60483298301696,133.71153891741886L252.00499963760376,134.0044426374708L260.4051662921906,133.5178194064453L268.80533294677736,132.89209004009354L277.2054996013642,133.78727548298588L285.6056662559509,132.98518102131044L294.0058329105377,132.5141745076188L302.4059995651245,132.17557157860585L310.8061662197113,132.38389226893634L319.2063328742981,132.2636074374488L327.6064995288849,132.4027587077963L336.0066661834717,132.73759286253937L344.4068328380585,132.12924047934808L352.8069994926452,132.8992890759743L361.20716614723204,130.66803930314637L369.6073328018188,132.7291977485969L378.00749945640564,130.98899443887166L386.40766611099247,131.17310019033044L394.80783276557924,130.78193752913467L403.20799942016606,131.88456352944416L411.6081660747528,131.12925151723846L420.0083327293396,131.82830272552326L428.40849938392637,131.33712085735698L436.8086660385132,130.77661159663353L445.20883269309996,132.22269254073456L453.6089993476868,129.34014441204727L462.00916600227356,131.81110628244755L470.4093326568604,131.4713524103941L478.8094993114471,132.96308742843496L487.2096659660339,131.5116805518328L495.6098326206207,130.5860741046543L504.0099992752075,130.89150279308814L512.4101659297943,129.35185695004765L520.8103325843812,131.7195950269725L529.2104992389679,131.41254147777562L537.6106658935547,130.44428243556683L546.0108325481415,130.01958445362237L554.4109992027284,129.7721091324043L562.8111658573151,130.94444617295113L571.2113325119018,131.12832624930394L579.6114991664886,130.45757469930908L588.0116658210754,129.42919580886712L596.4118324756622,129.5053837246461L604.811999130249,131.4369143892215L613.2121657848357,130.64529125246355L621.6123324394226,130.00857150845053L630.0124990940094,130.58864680086248L638.4126657485962,129.2259979434424L646.812832403183,128.13443002332593L655.2129990577698,130.11750488210726L663.6131657123566,129.9538452952503L672.0133323669434,129.40342371176416L680.4134990215302,130.01143758229648L688.813665676117,130.29359916730374L697.2138323307037,129.26810891821833L705.6139989852904,128.99197285854075L714.0141656398773,128.88707906928107L722.4143322944641,128.44161897758642L730.8144989490509,130.09791628290816L739.2146656036376,129.55153428381908L747.6148322582245,130.8780976917929L756.0149989128113,129.30588693095945L764.415165567398,130.2562273697534L772.8153322219849,131.18722745196482L781.2154988765717,129.5318102795564L789.6156655311585,130.08166767527757L798.0158321857452,130.23372756168715L806.4159988403321,130.29682632131926L814.8161654949189,129.68522421660185L823.2163321495055,129.84865812835284L831.6164988040923,129.91270472343007L840.0166654586792,130.53875003493022L848.416832113266,129.8743399554134L856.8169987678527,129.52799637026533L865.2171654224395,129.08813302119898L873.6173320770264,129.0466088016986L882.0174987316132,128.72615015120647L890.4176653861999,128.5923699483813L898.8178320407868,129.8387509912003L907.2179986953736,129.1132732280052L915.6181653499603,129.71492306054887" fill="none"></path></g><g><path style="fill: none;" stroke="rgb(255, 112, 67)" stroke-width="2px" d="M84.00166654586792,284.48837772133027L92.4018332004547,156.3901268026196L100.80199985504152,96.11478842142805L109.2021665096283,87.0632984332143L117.6023331642151,82.03861963105072L126.00249981880188,79.08001899164805L134.40266647338868,77.6042166360894L142.80283312797545,76.37440014604937L151.20299978256224,75.67866636182248L159.60316643714904,75.19378082911305L168.00333309173584,75.01105169580075L176.4034997463226,74.58940032778702L184.8036664009094,74.28018029757271L193.20383305549623,74.12559284997616L201.60399971008303,73.68284085955327L210.0041663646698,73.76015715086214L218.4043330192566,73.851510433763L226.8044996738434,73.37364339684956L235.2046663284302,73.40173994754412L243.60483298301696,73.31740516043925L252.00499963760376,73.12063903553496L260.4051662921906,72.95199202883583L268.80533294677736,73.1628177128427L277.2054996013642,73.08550142153382L285.6056662559509,73.21199231843582L294.0058329105377,72.93089140642667L302.4059995651245,72.77628139131951L310.8061662197113,72.83251962772982L319.2063328742981,72.6005933213138L327.6064995288849,72.7833224546261L336.0066661834717,72.61465288041637L344.4068328380585,72.50222154261695L352.8069994926452,72.69196917172525L361.20716614723204,72.30545541771266L369.6073328018188,72.43194631461466L378.00749945640564,72.40382719640951L386.40766611099247,72.36167108661238L394.80783276557924,72.50222154261695L403.20799942016606,72.50222154261695L411.6081660747528,72.23518018971038L420.0083327293396,72.29139585861009L428.40849938392637,72.15084540260551L436.8086660385132,72.20706107150522L445.20883269309996,72.24921718130236L453.6089993476868,72.16490496170809L462.00916600227356,72.17894195330007L470.4093326568604,71.98217582839578L478.8094993114471,71.97515733259979L487.2096659660339,72.05245105639807L495.6098326206207,72.13678584350293L504.0099992752075,72.04543256060208L512.4101659297943,72.22813912640379L520.8103325843812,72.19300151240265L529.2104992389679,72.23518018971038L537.6106658935547,72.29139585861009L546.0108325481415,72.19300151240265L554.4109992027284,71.96109777349722L562.8111658573151,72.10164822950179L571.2113325119018,72.00325388329435L579.6114991664886,71.82756581328863L588.0116658210754,71.97515733259979L596.4118324756622,72.20706107150522L604.811999130249,71.93297865529206L613.2121657848357,71.93297865529206L621.6123324394226,72.01731344239693L630.0124990940094,71.9119006003935L638.4126657485962,71.85568493149378L646.812832403183,71.65187774328291L655.2129990577698,71.75729058528634L663.6131657123566,72.01731344239693L672.0133323669434,72.01029494660094L680.4134990215302,71.77836864018491L688.813665676117,71.95407927770123L697.2138323307037,71.98217582839578L705.6139989852904,72.04543256060208L714.0141656398773,71.9681162692932L722.4143322944641,71.94001971859865L730.8144989490509,71.86270342728977L739.2146656036376,71.94001971859865L747.6148322582245,71.86270342728977L756.0149989128113,71.81352882169665L764.415165567398,71.79946926259407L772.8153322219849,71.77836864018491L781.2154988765717,71.75729058528634L789.6156655311585,71.65187774328291L798.0158321857452,71.60268057017919L806.4159988403321,71.75027208949035L814.8161654949189,71.51836835058492L823.2163321495055,71.66593730238549L831.6164988040923,71.6589188065895L840.0166654586792,71.85568493149378L848.416832113266,71.67295579818148L856.8169987678527,71.79946926259407L865.2171654224395,71.70809341218262L873.6173320770264,71.65187774328291L882.0174987316132,71.61674012928177L890.4176653861999,71.75027208949035L898.8178320407868,71.63079968838434L907.2179986953736,71.53944640548349L915.6181653499603,71.61674012928177" fill="none"></path></g></g></g></g></g></g><g transform="translate(59, 378)" clip-path="url(#clip_1)"><clipPath id="clip_1"><rect width="1008" height="21"></rect></clipPath><g><g><line x1="0" y1="0" x2="0" y2="5" style="visibility: inherit;" fill="rgb(0, 0, 0)" stroke="rgb(204, 204, 204)" stroke-width="1px"></line><line x1="84.00166654586792" y1="0" x2="84.00166654586792" y2="5" style="visibility: inherit;" fill="rgb(0, 0, 0)" stroke="rgb(204, 204, 204)" stroke-width="1px"></line><line x1="168.00333309173584" y1="0" x2="168.00333309173584" y2="5" style="visibility: inherit;" fill="rgb(0, 0, 0)" stroke="rgb(204, 204, 204)" stroke-width="1px"></line><line x1="252.00499963760376" y1="0" x2="252.00499963760376" y2="5" style="visibility: inherit;" fill="rgb(0, 0, 0)" stroke="rgb(204, 204, 204)" stroke-width="1px"></line><line x1="336.0066661834717" y1="0" x2="336.0066661834717" y2="5" style="visibility: inherit;" fill="rgb(0, 0, 0)" stroke="rgb(204, 204, 204)" stroke-width="1px"></line><line x1="420.0083327293396" y1="0" x2="420.0083327293396" y2="5" style="visibility: inherit;" fill="rgb(0, 0, 0)" stroke="rgb(204, 204, 204)" stroke-width="1px"></line><line x1="504.0099992752075" y1="0" x2="504.0099992752075" y2="5" style="visibility: inherit;" fill="rgb(0, 0, 0)" stroke="rgb(204, 204, 204)" stroke-width="1px"></line><line x1="588.0116658210754" y1="0" x2="588.0116658210754" y2="5" style="visibility: inherit;" fill="rgb(0, 0, 0)" stroke="rgb(204, 204, 204)" stroke-width="1px"></line><line x1="672.0133323669434" y1="0" x2="672.0133323669434" y2="5" style="visibility: inherit;" fill="rgb(0, 0, 0)" stroke="rgb(204, 204, 204)" stroke-width="1px"></line><line x1="756.0149989128113" y1="0" x2="756.0149989128113" y2="5" style="visibility: inherit;" fill="rgb(0, 0, 0)" stroke="rgb(204, 204, 204)" stroke-width="1px"></line><line x1="840.0166654586792" y1="0" x2="840.0166654586792" y2="5" style="visibility: inherit;" fill="rgb(0, 0, 0)" stroke="rgb(204, 204, 204)" stroke-width="1px"></line><line x1="924.0183320045471" y1="0" x2="924.0183320045471" y2="5" style="visibility: inherit;" fill="rgb(0, 0, 0)" stroke="rgb(204, 204, 204)" stroke-width="1px"></line><line x1="1008.019998550415" y1="0" x2="1008.019998550415" y2="5" style="visibility: inherit;" fill="rgb(0, 0, 0)" stroke="rgb(204, 204, 204)" stroke-width="1px"></line></g><g transform="translate(0, 8)"><text style="text-anchor: middle; visibility: hidden; font-family: &quot;Helvetica Neue&quot;, sans-serif; font-size: 12px; font-weight: 200;" x="0" y="0" dx="0em" dy="0.95em" fill="rgb(50, 49, 63)" stroke="none" stroke-width="1px">-10</text><text style="text-anchor: middle; visibility: hidden; font-family: &quot;Helvetica Neue&quot;, sans-serif; font-size: 12px; font-weight: 200;" x="84.00166654586792" y="0" dx="0em" dy="0.95em" fill="rgb(50, 49, 63)" stroke="none" stroke-width="1px">0</text><text style="text-anchor: middle; visibility: hidden; font-family: &quot;Helvetica Neue&quot;, sans-serif; font-size: 12px; font-weight: 200;" x="168.00333309173584" y="0" dx="0em" dy="0.95em" fill="rgb(50, 49, 63)" stroke="none" stroke-width="1px">10</text><text style="text-anchor: middle; visibility: hidden; font-family: &quot;Helvetica Neue&quot;, sans-serif; font-size: 12px; font-weight: 200;" x="252.00499963760376" y="0" dx="0em" dy="0.95em" fill="rgb(50, 49, 63)" stroke="none" stroke-width="1px">20</text><text style="text-anchor: middle; visibility: hidden; font-family: &quot;Helvetica Neue&quot;, sans-serif; font-size: 12px; font-weight: 200;" x="336.0066661834717" y="0" dx="0em" dy="0.95em" fill="rgb(50, 49, 63)" stroke="none" stroke-width="1px">30</text><text style="text-anchor: middle; visibility: hidden; font-family: &quot;Helvetica Neue&quot;, sans-serif; font-size: 12px; font-weight: 200;" x="420.0083327293396" y="0" dx="0em" dy="0.95em" fill="rgb(50, 49, 63)" stroke="none" stroke-width="1px">40</text><text style="text-anchor: middle; visibility: hidden; font-family: &quot;Helvetica Neue&quot;, sans-serif; font-size: 12px; font-weight: 200;" x="504.0099992752075" y="0" dx="0em" dy="0.95em" fill="rgb(50, 49, 63)" stroke="none" stroke-width="1px">50</text><text style="text-anchor: middle; visibility: hidden; font-family: &quot;Helvetica Neue&quot;, sans-serif; font-size: 12px; font-weight: 200;" x="588.0116658210754" y="0" dx="0em" dy="0.95em" fill="rgb(50, 49, 63)" stroke="none" stroke-width="1px">60</text><text style="text-anchor: middle; visibility: hidden; font-family: &quot;Helvetica Neue&quot;, sans-serif; font-size: 12px; font-weight: 200;" x="672.0133323669434" y="0" dx="0em" dy="0.95em" fill="rgb(50, 49, 63)" stroke="none" stroke-width="1px">70</text><text style="text-anchor: middle; visibility: hidden; font-family: &quot;Helvetica Neue&quot;, sans-serif; font-size: 12px; font-weight: 200;" x="756.0149989128113" y="0" dx="0em" dy="0.95em" fill="rgb(50, 49, 63)" stroke="none" stroke-width="1px">80</text><text style="text-anchor: middle; visibility: hidden; font-family: &quot;Helvetica Neue&quot;, sans-serif; font-size: 12px; font-weight: 200;" x="840.0166654586792" y="0" dx="0em" dy="0.95em" fill="rgb(50, 49, 63)" stroke="none" stroke-width="1px">90</text><text style="text-anchor: middle; visibility: hidden; font-family: &quot;Helvetica Neue&quot;, sans-serif; font-size: 12px; font-weight: 200;" x="924.0183320045471" y="0" dx="0em" dy="0.95em" fill="rgb(50, 49, 63)" stroke="none" stroke-width="1px">100</text><text style="text-anchor: middle; visibility: hidden; font-family: &quot;Helvetica Neue&quot;, sans-serif; font-size: 12px; font-weight: 200;" x="1008.019998550415" y="0" dx="0em" dy="0.95em" fill="rgb(50, 49, 63)" stroke="none" stroke-width="1px">110</text></g><line x1="0" y1="0" x2="1008.019998550415" y2="0" fill="rgb(0, 0, 0)" stroke="rgb(204, 204, 204)" stroke-width="1px"></line></g></g></g></g></svg>