<svg viewBox="0 0 1085 400" xmlns="http://www.w3.org/2000/svg"><g><g><g><g><g><line x1="29.992000579833984" y1="378.6199998855591" x2="24.992000579833984" y2="378.6199998855591" style="visibility: inherit;" fill="rgb(0, 0, 0)" stroke="rgb(204, 204, 204)" stroke-width="1px"></line><line x1="29.992000579833984" y1="336.55111100938586" x2="24.992000579833984" y2="336.55111100938586" style="visibility: inherit;" fill="rgb(0, 0, 0)" stroke="rgb(204, 204, 204)" stroke-width="1px"></line><line x1="29.992000579833984" y1="294.48222213321264" x2="24.992000579833984" y2="294.48222213321264" style="visibility: inherit;" fill="rgb(0, 0, 0)" stroke="rgb(204, 204, 204)" stroke-width="1px"></line><line x1="29.992000579833984" y1="252.4133332570394" x2="24.992000579833984" y2="252.4133332570394" style="visibility: inherit;" fill="rgb(0, 0, 0)" stroke="rgb(204, 204, 204)" stroke-width="1px"></line><line x1="29.992000579833984" y1="210.34444438086618" x2="24.992000579833984" y2="210.34444438086618" style="visibility: inherit;" fill="rgb(0, 0, 0)" stroke="rgb(204, 204, 204)" stroke-width="1px"></line><line x1="29.992000579833984" y1="168.2755555046929" x2="24.992000579833984" y2="168.2755555046929" style="visibility: inherit;" fill="rgb(0, 0, 0)" stroke="rgb(204, 204, 204)" stroke-width="1px"></line><line x1="29.992000579833984" y1="126.20666662851971" x2="24.992000579833984" y2="126.20666662851971" style="visibility: inherit;" fill="rgb(0, 0, 0)" stroke="rgb(204, 204, 204)" stroke-width="1px"></line><line x1="29.992000579833984" y1="84.13777775234644" x2="24.992000579833984" y2="84.13777775234644" style="visibility: inherit;" fill="rgb(0, 0, 0)" stroke="rgb(204, 204, 204)" stroke-width="1px"></line><line x1="29.992000579833984" y1="42.068888876173276" x2="24.992000579833984" y2="42.068888876173276" style="visibility: inherit;" fill="rgb(0, 0, 0)" stroke="rgb(204, 204, 204)" stroke-width="1px"></line><line x1="29.992000579833984" y1="0" x2="24.992000579833984" y2="0" style="visibility: inherit;" fill="rgb(0, 0, 0)" stroke="rgb(204, 204, 204)" stroke-width="1px"></line></g><g transform="translate(19.992000579833984, 0)"><text style="text-anchor: end; visibility: hidden; font-family: &quot;Helvetica Neue&quot;, sans-serif; font-size: 12px; font-weight: 200;" x="0" y="378.6199998855591" dx="0em" dy="0.3em" fill="rgb(50, 49, 63)" stroke="none" stroke-width="1px">-1</text><text style="text-anchor: end; visibility: inherit; font-family: &quot;Helvetica Neue&quot;, sans-serif; font-size: 12px; font-weight: 200;" x="0" y="336.55111100938586" dx="0em" dy="0.3em" fill="rgb(50, 49, 63)" stroke="none" stroke-width="1px">0</text><text style="text-anchor: end; visibility: inherit; font-family: &quot;Helvetica Neue&quot;, sans-serif; font-size: 12px; font-weight: 200;" x="0" y="294.48222213321264" dx="0em" dy="0.3em" fill="rgb(50, 49, 63)" stroke="none" stroke-width="1px">1</text><text style="text-anchor: end; visibility: inherit; font-family: &quot;Helvetica Neue&quot;, sans-serif; font-size: 12px; font-weight: 200;" x="0" y="252.4133332570394" dx="0em" dy="0.3em" fill="rgb(50, 49, 63)" stroke="none" stroke-width="1px">2</text><text style="text-anchor: end; visibility: inherit; font-family: &quot;Helvetica Neue&quot;, sans-serif; font-size: 12px; font-weight: 200;" x="0" y="210.34444438086618" dx="0em" dy="0.3em" fill="rgb(50, 49, 63)" stroke="none" stroke-width="1px">3</text><text style="text-anchor: end; visibility: inherit; font-family: &quot;Helvetica Neue&quot;, sans-serif; font-size: 12px; font-weight: 200;" x="0" y="168.2755555046929" dx="0em" dy="0.3em" fill="rgb(50, 49, 63)" stroke="none" stroke-width="1px">4</text><text style="text-anchor: end; visibility: inherit; font-family: &quot;Helvetica Neue&quot;, sans-serif; font-size: 12px; font-weight: 200;" x="0" y="126.20666662851971" dx="0em" dy="0.3em" fill="rgb(50, 49, 63)" stroke="none" stroke-width="1px">5</text><text style="text-anchor: end; visibility: inherit; font-family: &quot;Helvetica Neue&quot;, sans-serif; font-size: 12px; font-weight: 200;" x="0" y="84.13777775234644" dx="0em" dy="0.3em" fill="rgb(50, 49, 63)" stroke="none" stroke-width="1px">6</text><text style="text-anchor: end; visibility: inherit; font-family: &quot;Helvetica Neue&quot;, sans-serif; font-size: 12px; font-weight: 200;" x="0" y="42.068888876173276" dx="0em" dy="0.3em" fill="rgb(50, 49, 63)" stroke="none" stroke-width="1px">7</text><text style="text-anchor: end; visibility: hidden; font-family: &quot;Helvetica Neue&quot;, sans-serif; font-size: 12px; font-weight: 200;" x="0" y="0" dx="0em" dy="0.3em" fill="rgb(50, 49, 63)" stroke="none" stroke-width="1px">8</text></g><line x1="29.992000579833984" y1="0" x2="29.992000579833984" y2="378.6199998855591" fill="rgb(0, 0, 0)" stroke="rgb(204, 204, 204)" stroke-width="1px"></line></g></g><g transform="translate(30, 0)" clip-path="url(#clip_0)"><clipPath id="clip_0"><rect width="1038" height="378"></rect></clipPath><g><g><g><line x1="0" y1="0" x2="0" y2="378.6199998855591" fill="rgb(0, 0, 0)" stroke="rgb(60, 60, 60)" stroke-width="1px" opacity="0.25"></line><line x1="86.50066661834717" y1="0" x2="86.50066661834717" y2="378.6199998855591" fill="rgb(0, 0, 0)" stroke="rgb(60, 60, 60)" stroke-width="1px" opacity="0.25"></line><line x1="173.00133323669434" y1="0" x2="173.00133323669434" y2="378.6199998855591" fill="rgb(0, 0, 0)" stroke="rgb(60, 60, 60)" stroke-width="1px" opacity="0.25"></line><line x1="259.5019998550415" y1="0" x2="259.5019998550415" y2="378.6199998855591" fill="rgb(0, 0, 0)" stroke="rgb(60, 60, 60)" stroke-width="1px" opacity="0.25"></line><line x1="346.0026664733887" y1="0" x2="346.0026664733887" y2="378.6199998855591" fill="rgb(0, 0, 0)" stroke="rgb(60, 60, 60)" stroke-width="1px" opacity="0.25"></line><line x1="432.50333309173584" y1="0" x2="432.50333309173584" y2="378.6199998855591" fill="rgb(0, 0, 0)" stroke="rgb(60, 60, 60)" stroke-width="1px" opacity="0.25"></line><line x1="519.003999710083" y1="0" x2="519.003999710083" y2="378.6199998855591" fill="rgb(0, 0, 0)" stroke="rgb(60, 60, 60)" stroke-width="1px" opacity="0.25"></line><line x1="605.5046663284302" y1="0" x2="605.5046663284302" y2="378.6199998855591" fill="rgb(0, 0, 0)" stroke="rgb(60, 60, 60)" stroke-width="1px" opacity="0.25"></line><line x1="692.0053329467773" y1="0" x2="692.0053329467773" y2="378.6199998855591" fill="rgb(0, 0, 0)" stroke="rgb(60, 60, 60)" stroke-width="1px" opacity="0.25"></line><line x1="778.5059995651245" y1="0" x2="778.5059995651245" y2="378.6199998855591" fill="rgb(0, 0, 0)" stroke="rgb(60, 60, 60)" stroke-width="1px" opacity="0.25"></line><line x1="865.0066661834717" y1="0" x2="865.0066661834717" y2="378.6199998855591" fill="rgb(0, 0, 0)" stroke="rgb(60, 60, 60)" stroke-width="1px" opacity="0.25"></line><line x1="951.5073328018188" y1="0" x2="951.5073328018188" y2="378.6199998855591" fill="rgb(0, 0, 0)" stroke="rgb(60, 60, 60)" stroke-width="1px" opacity="0.25"></line><line x1="1038.007999420166" y1="0" x2="1038.007999420166" y2="378.6199998855591" fill="rgb(0, 0, 0)" stroke="rgb(60, 60, 60)" stroke-width="1px" opacity="0.25"></line></g><g><line x1="0" y1="378.6199998855591" x2="1038.007999420166" y2="378.6199998855591" fill="rgb(0, 0, 0)" stroke="rgb(60, 60, 60)" stroke-width="1px" opacity="0.25"></line><line x1="0" y1="336.55111100938586" x2="1038.007999420166" y2="336.55111100938586" fill="rgb(0, 0, 0)" stroke="rgb(60, 60, 60)" stroke-width="1px" opacity="0.25"></line><line x1="0" y1="294.48222213321264" x2="1038.007999420166" y2="294.48222213321264" fill="rgb(0, 0, 0)" stroke="rgb(60, 60, 60)" stroke-width="1px" opacity="0.25"></line><line x1="0" y1="252.4133332570394" x2="1038.007999420166" y2="252.4133332570394" fill="rgb(0, 0, 0)" stroke="rgb(60, 60, 60)" stroke-width="1px" opacity="0.25"></line><line x1="0" y1="210.34444438086618" x2="1038.007999420166" y2="210.34444438086618" fill="rgb(0, 0, 0)" stroke="rgb(60, 60, 60)" stroke-width="1px" opacity="0.25"></line><line x1="0" y1="168.2755555046929" x2="1038.007999420166" y2="168.2755555046929" fill="rgb(0, 0, 0)" stroke="rgb(60, 60, 60)" stroke-width="1px" opacity="0.25"></line><line x1="0" y1="126.20666662851971" x2="1038.007999420166" y2="126.20666662851971" fill="rgb(0, 0, 0)" stroke="rgb(60, 60, 60)" stroke-width="1px" opacity="0.25"></line><line x1="0" y1="84.13777775234644" x2="1038.007999420166" y2="84.13777775234644" fill="rgb(0, 0, 0)" stroke="rgb(60, 60, 60)" stroke-width="1px" opacity="0.25"></line><line x1="0" y1="42.068888876173276" x2="1038.007999420166" y2="42.068888876173276" fill="rgb(0, 0, 0)" stroke="rgb(60, 60, 60)" stroke-width="1px" opacity="0.25"></line><line x1="0" y1="0" x2="1038.007999420166" y2="0" fill="rgb(0, 0, 0)" stroke="rgb(60, 60, 60)" stroke-width="1px" opacity="0.25"></line></g></g></g><g><g><line x1="0" y1="336.55111100938586" x2="1038.007999420166" y2="336.55111100938586" fill="rgb(0, 0, 0)" stroke="rgb(153, 153, 153)" stroke-width="1.5px"></line></g></g><g><g><line x1="86.50066661834717" y1="0" x2="86.50066661834717" y2="378.6199998855591" fill="rgb(0, 0, 0)" stroke="rgb(153, 153, 153)" stroke-width="1.5px"></line></g></g><g><g><g><g><g><path style="fill: none;" stroke="rgb(0, 119, 187)" stroke-width="2px" d="M86.50066661834717,67.73994371168078L95.15073328018188,132.16467623523926L103.80079994201661,193.225509701765L112.45086660385132,236.35010655288525L121.10093326568604,262.3328590471565L129.75099992752075,279.01705218088716L138.40106658935548,289.97258432935604L147.05113325119018,297.31165037904833L155.7011999130249,302.320437564288L164.3512665748596,305.82576371221387L173.00133323669434,308.3365334449416L181.65139989852904,310.1819284587333L190.30146656036376,311.5659476709021L198.9515332221985,312.6331912972819L207.60159988403322,313.5027088144665L216.25166654586792,314.2134551229139L224.90173320770265,314.8173377051574L233.55179986953735,315.3107243582533L242.20186653137208,315.7520513532176L250.85193319320678,316.1516109468304L259.5019998550415,316.49212757119415L268.15206651687623,316.8013003520476L276.80213317871096,317.08222161650536L285.4521998405457,317.34105195099283L294.10226650238036,317.58822848312616L302.7523331642151,317.8016493558123L311.4023998260498,318.0147100353537L320.05246648788454,318.20162958704555L328.7025331497192,318.3781127155118L337.35259981155394,318.54668006426533L346.0026664733887,318.70417504160736L354.6527331352234,318.8560491626541L363.30279979705807,318.99325197288573L371.9528664588928,319.12478888335386L380.6029331207275,319.2360828679816L389.25299978256226,319.37766955293745L397.903066444397,319.48520161121996L406.5531331062317,319.5863775041142L415.20319976806644,319.7036407317966L423.8532664299011,319.81019194028414L432.50333309173584,319.9042242139458L441.15339975357057,319.9929707847914L449.8034664154053,320.0840453855463L458.45353307723997,320.1566543859218L467.1035997390747,320.25734216747054L475.7536664009094,320.32445989454226L484.40373306274415,320.40236461295757L493.0537997245788,320.4750540631904L501.70386638641355,320.5428766541982L510.3539330482483,320.6025113711975L519.003999710083,320.66796546883194L527.6540663719177,320.73210230908916L536.3041330337525,320.78467907736245L544.9541996955871,320.8455624006036L553.6042663574219,320.8997111008223L562.2543330192566,320.96757113256416L570.9043996810914,321.0246114857754L579.554466342926,321.09011175988985L588.2045330047607,321.1414624735176L596.8545996665954,321.19072309535875L605.5046663284302,321.22814549965744L614.1547329902648,321.278903615529L622.8047996520996,321.33379207802625L631.4548663139343,321.3869461465207L640.1049329757691,321.43641165736994L648.7549996376038,321.47766759531606L657.4050662994384,321.5095725514421L666.0551329612732,321.54855838493626L674.7051996231079,321.5896909573642L683.3552662849427,321.63999315085374L692.0053329467773,321.67065189517166L700.6553996086121,321.6954838972852L709.3054662704468,321.732176794288L717.9555329322815,321.7640470121175L726.6055995941161,321.8044849088254L735.2556662559509,321.83114732547705L743.9057329177856,321.8663181324721L752.5557995796204,321.90688484380985L761.205866241455,321.9372664439497L769.8559329032898,321.9688628928112L778.5059995651245,322.0098316074647L787.1560662269592,322.04257425108955L795.806132888794,322.0610021946926L804.4561995506286,322.0868045722792L813.1062662124634,322.1161253993304L821.7563328742981,322.1553320542114L830.4063995361329,322.18950690914176L839.0564661979676,322.2068157610991L847.7065328598022,322.23239753241L856.3565995216369,322.25790047046496L865.0066661834717,322.2762633907355L873.6567328453064,322.3033597419485L882.3067995071411,322.3332658815858L890.9568661689758,322.37483624446367L899.6069328308106,322.38766923750364L908.2569994926453,322.4201366254589L916.9070661544799,322.4401371139763L925.5571328163147,322.46000042927926L934.2071994781494,322.48421069073373L942.8572661399842,322.4993837829102" fill="none"></path></g><g><path style="fill: none;" stroke="rgb(255, 112, 67)" stroke-width="2px" d="M86.50066661834717,121.46395884127384L95.15073328018188,203.92927530883276L103.80079994201661,250.52936067857348L112.45086660385132,274.6273016581104L121.10093326568604,288.49969827881233L129.75099992752075,297.1539028455725L138.40106658935548,302.5061697751546L147.05113325119018,305.905169610122L155.7011999130249,308.279146687024L164.3512665748596,309.8062154357659L173.00133323669434,310.7259147115283L181.65139989852904,311.47386258271047L190.30146656036376,312.1677127215741L198.9515332221985,312.5800214651518L207.60159988403322,312.8769640262906L216.25166654586792,313.0027430261259L224.90173320770265,313.14277883710156L233.55179986953735,313.3666788082629L242.20186653137208,313.4558554315515L250.85193319320678,313.5987897223614L259.5019998550415,313.79239694374206L268.15206651687623,313.9953934640716L276.80213317871096,313.87094408494056L285.4521998405457,313.7459472933592L294.10226650238036,313.7669139463678L302.7523331642151,313.8672425489145L311.4023998260498,313.84208617946973L320.05246648788454,313.90034384977275L328.7025331497192,313.99386565414164L337.35259981155394,314.0858580554908L346.0026664733887,314.0724402179616L354.6527331352234,314.1568240413484L363.30279979705807,314.12285725531456L371.9528664588928,314.04415772067375L380.6029331207275,314.08905858117714L389.25299978256226,314.02387751477335L397.903066444397,314.1454696118233L406.5531331062317,314.08743701957144L415.20319976806644,314.0651970962939L423.8532664299011,314.18039567689635L432.50333309173584,314.23869646207015L441.15339975357057,314.1537822687825L449.8034664154053,314.2779155091076L458.45353307723997,314.23198424371196L467.1035997390747,314.2023713395148L475.7536664009094,314.24312867448634L484.40373306274415,314.20807706352053L493.0537997245788,314.253467797136L501.70386638641355,314.34611090702236L510.3539330482483,314.2583690086434L519.003999710083,314.2627083383775L527.6540663719177,314.25861791107434L536.3041330337525,314.1781492750556L544.9541996955871,314.21562162471565L553.6042663574219,314.17213769353236L562.2543330192566,314.108745747305L570.9043996810914,314.21322290449456L579.554466342926,314.3131255312856L588.2045330047607,314.40532259950794L596.8545996665954,314.3366990692364L605.5046663284302,314.161805931277L614.1547329902648,314.1523827743556L622.8047996520996,314.2623818555151L631.4548663139343,314.3018338877438L640.1049329757691,314.35781074925217L648.7549996376038,314.3588174048574L657.4050662994384,314.3895846313856L666.0551329612732,314.4178332488993L674.7051996231079,314.3576526861862L683.3552662849427,314.37601931014063L692.0053329467773,314.4521390300851L700.6553996086121,314.39509859881656L709.3054662704468,314.38845484700767L717.9555329322815,314.3145113190693L726.6055995941161,314.33309551786874L735.2556662559509,314.1681271784404L743.9057329177856,314.20273681051947L752.5557995796204,314.22353769478343L761.205866241455,314.1966845588701L769.8559329032898,314.24911371751006L778.5059995651245,314.2130010769621L787.1560662269592,314.1788501487709L795.806132888794,314.13319932504055L804.4561995506286,314.2528065738347L813.1062662124634,314.24638001539154L821.7563328742981,314.20802487612434L830.4063995361329,314.1820940641938L839.0564661979676,314.1531364937431L847.7065328598022,314.1294972105306L856.3565995216369,314.2280609235509L865.0066661834717,314.2282026636575L873.6567328453064,314.18908242531006L882.3067995071411,314.2215917505913L890.9568661689758,314.268464213612L899.6069328308106,314.2550434119145L908.2569994926453,314.23980543552165L916.9070661544799,314.19829080948364L925.5571328163147,314.339595259917L934.2071994781494,314.2794062480962L942.8572661399842,314.1618732747679" fill="none"></path></g></g></g></g><g opacity="0.2"><g><g><g><path style="fill: none;" stroke="rgb(0, 119, 187)" stroke-width="2px" d="M86.50066661834717,67.73994371168078L95.15073328018188,170.81951574937435L103.80079994201661,251.84390982962972L112.45086660385132,287.0646324498027L121.10093326568604,296.25594070367714L129.75099992752075,302.0972975943648L138.40106658935548,305.63917059018087L147.05113325119018,308.01207913453385L155.7011999130249,309.7074257556937L164.3512665748596,311.0307645171532L173.00133323669434,312.0799155473501L181.65139989852904,312.9399784212483L190.30146656036376,313.6374574262948L198.9515332221985,314.2319658954848L207.60159988403322,314.8059630050423L216.25166654586792,315.2790733122219L224.90173320770265,315.72290603565233L233.55179986953735,316.0506790670794L242.20186653137208,316.41397461393836L250.85193319320678,316.75091381592L259.5019998550415,317.00288383299886L268.15206651687623,317.2650493498657L276.80213317871096,317.5035979668916L285.4521998405457,317.72929438663203L294.10226650238036,317.9589915245012L302.7523331642151,318.121779754699L311.4023998260498,318.3343005095019L320.05246648788454,318.4820086276178L328.7025331497192,318.6428372456453L337.35259981155394,318.79953099423096L346.0026664733887,318.94041745539334L354.6527331352234,319.08386031400624L363.30279979705807,319.19905617185395L371.9528664588928,319.32209423963445L380.6029331207275,319.4030238401402L389.25299978256226,319.5900495767202L397.903066444397,319.64649969698L406.5531331062317,319.7381413425163L415.20319976806644,319.8795355726671L423.8532664299011,319.97001875265937L432.50333309173584,320.0452726242497L441.15339975357057,320.12609064095307L449.8034664154053,320.22065728661295L458.45353307723997,320.2655678864536L467.1035997390747,320.4083738397674L475.7536664009094,320.4251364851394L484.40373306274415,320.5192216905732L493.0537997245788,320.5840882385355L501.70386638641355,320.6446105407077L510.3539330482483,320.6919634466953L519.003999710083,320.7661466152828L527.6540663719177,320.82830756947453L536.3041330337525,320.8635442297722L544.9541996955871,320.9368873854652L553.6042663574219,320.9809341511502L562.2543330192566,321.0693611801769L570.9043996810914,321.11017201559224L579.554466342926,321.1883621710615L588.2045330047607,321.21848854395927L596.8545996665954,321.2646140281205L605.5046663284302,321.2842791061055L614.1547329902648,321.3550407893362L622.8047996520996,321.41612477177216L631.4548663139343,321.4666772492624L640.1049329757691,321.5106099236438L648.7549996376038,321.5395515022352L657.4050662994384,321.5574299856312L666.0551329612732,321.60703713517745L674.7051996231079,321.65138981600614L683.3552662849427,321.71544644108803L692.0053329467773,321.71664001164856L700.6553996086121,321.7327319004556L709.3054662704468,321.7872161397922L717.9555329322815,321.8118523388617L726.6055995941161,321.8651417538872L735.2556662559509,321.8711409504545L743.9057329177856,321.91907434296473L752.5557995796204,321.9677349108165L761.205866241455,321.9828388441595L769.8559329032898,322.01625756610343L778.5059995651245,322.07128467944494L787.1560662269592,322.0916882165268L795.806132888794,322.0886441100972L804.4561995506286,322.1255081386591L813.1062662124634,322.1601066399071L821.7563328742981,322.2141420365329L830.4063995361329,322.2407691915374L839.0564661979676,322.2327790390351L847.7065328598022,322.2707701893763L856.3565995216369,322.29615487754734L865.0066661834717,322.30380777114124L873.6567328453064,322.3440042687681L882.3067995071411,322.3781250910418L890.9568661689758,322.43719178878035L899.6069328308106,322.40691872706367L908.2569994926453,322.46883770739174L916.9070661544799,322.4701378467523L925.5571328163147,322.4897954022338L934.2071994781494,322.5205260829154L942.8572661399842,322.5221434211749" fill="none"></path></g><g><path style="fill: none;" stroke="rgb(255, 112, 67)" stroke-width="2px" d="M86.50066661834717,121.46395884127384L95.15073328018188,253.4084651893681L103.80079994201661,295.2654426335246L112.45086660385132,302.9664802500459L121.10093326568604,306.6114993068008L129.75099992752075,309.1257832750458L138.40106658935548,310.15999712072795L147.05113325119018,310.860943999903L155.7011999130249,311.780301754147L164.3512665748596,312.0737345569474L173.00133323669434,312.09712202043045L181.65139989852904,312.59171409019825L190.30146656036376,313.2062223887804L198.9515332221985,313.1976768247673L207.60159988403322,313.3220288231648L216.25166654586792,313.1913228167834L224.90173320770265,313.3527732951029L233.55179986953735,313.70247191682654L242.20186653137208,313.5896067813234L250.85193319320678,313.8131780938158L259.5019998550415,314.08279715793293L268.15206651687623,314.299881564879L276.80213317871096,313.6842724732798L285.4521998405457,313.5584535866934L294.10226650238036,313.7983637768588L302.7523331642151,314.0177350248788L311.4023998260498,313.8043516896708L320.05246648788454,313.9877302657881L328.7025331497192,314.1341482745482L337.35259981155394,314.2238466066718L346.0026664733887,314.0523134661173L354.6527331352234,314.2833997596389L363.30279979705807,314.0719070803188L371.9528664588928,313.9261084243496L380.6029331207275,314.15640987000256L389.25299978256226,313.92610591684837L397.903066444397,314.327857755517L406.5531331062317,314.00038813173245L415.20319976806644,314.0318372115014L423.8532664299011,314.35319354741506L432.50333309173584,314.3261476397139L441.15339975357057,314.02641097895315L449.8034664154053,314.4641153695056L458.45353307723997,314.16308734563836L467.1035997390747,314.1579519832267L475.7536664009094,314.30426467693735L484.40373306274415,314.1554996470751L493.0537997245788,314.3215538975566L501.70386638641355,314.4850755718488L510.3539330482483,314.12675616107674L519.003999710083,314.2692173329786L527.6540663719177,314.2524822701196L536.3041330337525,314.0574463210278L544.9541996955871,314.27183014920564L553.6042663574219,314.1069117967575L562.2543330192566,314.0136578279641L570.9043996810914,314.3699386402788L579.554466342926,314.4629794714722L588.2045330047607,314.5436182018413L596.8545996665954,314.2337637738291L605.5046663284302,313.899466224338L614.1547329902648,314.1382480389735L622.8047996520996,314.42738047725436L631.4548663139343,314.3610119360867L640.1049329757691,314.44177604151474L648.7549996376038,314.3603273882652L657.4050662994384,314.43573547117796L666.0551329612732,314.4602061751698L674.7051996231079,314.2673818421166L683.3552662849427,314.40356924607227L692.0053329467773,314.56631861000176L700.6553996086121,314.30953795191374L709.3054662704468,314.3784892192943L717.9555329322815,314.20359602716184L726.6055995941161,314.3609718160679L735.2556662559509,313.9206746692978L743.9057329177856,314.25465125863815L752.5557995796204,314.2547390211794L761.205866241455,314.1564048550002L769.8559329032898,314.3277574554699L778.5059995651245,314.15883211614005L787.1560662269592,314.1276237564842L795.806132888794,314.06472308944507L804.4561995506286,314.4322174470259L813.1062662124634,314.23674017772686L821.7563328742981,314.1504921672235L830.4063995361329,314.143197846298L839.0564661979676,314.10970013806696L847.7065328598022,314.0940382857119L856.3565995216369,314.3759064930814L865.0066661834717,314.22841527381735L873.6567328453064,314.1304020677889L882.3067995071411,314.2703557385132L890.9568661689758,314.3387729081429L899.6069328308106,314.2349122093684L908.2569994926453,314.2169484709324L916.9070661544799,314.13601887042665L925.5571328163147,314.5515519355671L934.2071994781494,314.189122730365L942.8572661399842,313.9855738147754" fill="none"></path></g></g></g></g></g></g><g transform="translate(30, 378)" clip-path="url(#clip_1)"><clipPath id="clip_1"><rect width="1038" height="21"></rect></clipPath><g><g><line x1="0" y1="0" x2="0" y2="5" style="visibility: inherit;" fill="rgb(0, 0, 0)" stroke="rgb(204, 204, 204)" stroke-width="1px"></line><line x1="86.50066661834717" y1="0" x2="86.50066661834717" y2="5" style="visibility: inherit;" fill="rgb(0, 0, 0)" stroke="rgb(204, 204, 204)" stroke-width="1px"></line><line x1="173.00133323669434" y1="0" x2="173.00133323669434" y2="5" style="visibility: inherit;" fill="rgb(0, 0, 0)" stroke="rgb(204, 204, 204)" stroke-width="1px"></line><line x1="259.5019998550415" y1="0" x2="259.5019998550415" y2="5" style="visibility: inherit;" fill="rgb(0, 0, 0)" stroke="rgb(204, 204, 204)" stroke-width="1px"></line><line x1="346.0026664733887" y1="0" x2="346.0026664733887" y2="5" style="visibility: inherit;" fill="rgb(0, 0, 0)" stroke="rgb(204, 204, 204)" stroke-width="1px"></line><line x1="432.50333309173584" y1="0" x2="432.50333309173584" y2="5" style="visibility: inherit;" fill="rgb(0, 0, 0)" stroke="rgb(204, 204, 204)" stroke-width="1px"></line><line x1="519.003999710083" y1="0" x2="519.003999710083" y2="5" style="visibility: inherit;" fill="rgb(0, 0, 0)" stroke="rgb(204, 204, 204)" stroke-width="1px"></line><line x1="605.5046663284302" y1="0" x2="605.5046663284302" y2="5" style="visibility: inherit;" fill="rgb(0, 0, 0)" stroke="rgb(204, 204, 204)" stroke-width="1px"></line><line x1="692.0053329467773" y1="0" x2="692.0053329467773" y2="5" style="visibility: inherit;" fill="rgb(0, 0, 0)" stroke="rgb(204, 204, 204)" stroke-width="1px"></line><line x1="778.5059995651245" y1="0" x2="778.5059995651245" y2="5" style="visibility: inherit;" fill="rgb(0, 0, 0)" stroke="rgb(204, 204, 204)" stroke-width="1px"></line><line x1="865.0066661834717" y1="0" x2="865.0066661834717" y2="5" style="visibility: inherit;" fill="rgb(0, 0, 0)" stroke="rgb(204, 204, 204)" stroke-width="1px"></line><line x1="951.5073328018188" y1="0" x2="951.5073328018188" y2="5" style="visibility: inherit;" fill="rgb(0, 0, 0)" stroke="rgb(204, 204, 204)" stroke-width="1px"></line><line x1="1038.007999420166" y1="0" x2="1038.007999420166" y2="5" style="visibility: inherit;" fill="rgb(0, 0, 0)" stroke="rgb(204, 204, 204)" stroke-width="1px"></line></g><g transform="translate(0, 8)"><text style="text-anchor: middle; visibility: hidden; font-family: &quot;Helvetica Neue&quot;, sans-serif; font-size: 12px; font-weight: 200;" x="0" y="0" dx="0em" dy="0.95em" fill="rgb(50, 49, 63)" stroke="none" stroke-width="1px">-10</text><text style="text-anchor: middle; visibility: inherit; font-family: &quot;Helvetica Neue&quot;, sans-serif; font-size: 12px; font-weight: 200;" x="86.50066661834717" y="0" dx="0em" dy="0.95em" fill="rgb(50, 49, 63)" stroke="none" stroke-width="1px">0</text><text style="text-anchor: middle; visibility: inherit; font-family: &quot;Helvetica Neue&quot;, sans-serif; font-size: 12px; font-weight: 200;" x="173.00133323669434" y="0" dx="0em" dy="0.95em" fill="rgb(50, 49, 63)" stroke="none" stroke-width="1px">10</text><text style="text-anchor: middle; visibility: inherit; font-family: &quot;Helvetica Neue&quot;, sans-serif; font-size: 12px; font-weight: 200;" x="259.5019998550415" y="0" dx="0em" dy="0.95em" fill="rgb(50, 49, 63)" stroke="none" stroke-width="1px">20</text><text style="text-anchor: middle; visibility: inherit; font-family: &quot;Helvetica Neue&quot;, sans-serif; font-size: 12px; font-weight: 200;" x="346.0026664733887" y="0" dx="0em" dy="0.95em" fill="rgb(50, 49, 63)" stroke="none" stroke-width="1px">30</text><text style="text-anchor: middle; visibility: inherit; font-family: &quot;Helvetica Neue&quot;, sans-serif; font-size: 12px; font-weight: 200;" x="432.50333309173584" y="0" dx="0em" dy="0.95em" fill="rgb(50, 49, 63)" stroke="none" stroke-width="1px">40</text><text style="text-anchor: middle; visibility: inherit; font-family: &quot;Helvetica Neue&quot;, sans-serif; font-size: 12px; font-weight: 200;" x="519.003999710083" y="0" dx="0em" dy="0.95em" fill="rgb(50, 49, 63)" stroke="none" stroke-width="1px">50</text><text style="text-anchor: middle; visibility: inherit; font-family: &quot;Helvetica Neue&quot;, sans-serif; font-size: 12px; font-weight: 200;" x="605.5046663284302" y="0" dx="0em" dy="0.95em" fill="rgb(50, 49, 63)" stroke="none" stroke-width="1px">60</text><text style="text-anchor: middle; visibility: inherit; font-family: &quot;Helvetica Neue&quot;, sans-serif; font-size: 12px; font-weight: 200;" x="692.0053329467773" y="0" dx="0em" dy="0.95em" fill="rgb(50, 49, 63)" stroke="none" stroke-width="1px">70</text><text style="text-anchor: middle; visibility: inherit; font-family: &quot;Helvetica Neue&quot;, sans-serif; font-size: 12px; font-weight: 200;" x="778.5059995651245" y="0" dx="0em" dy="0.95em" fill="rgb(50, 49, 63)" stroke="none" stroke-width="1px">80</text><text style="text-anchor: middle; visibility: inherit; font-family: &quot;Helvetica Neue&quot;, sans-serif; font-size: 12px; font-weight: 200;" x="865.0066661834717" y="0" dx="0em" dy="0.95em" fill="rgb(50, 49, 63)" stroke="none" stroke-width="1px">90</text><text style="text-anchor: middle; visibility: inherit; font-family: &quot;Helvetica Neue&quot;, sans-serif; font-size: 12px; font-weight: 200;" x="951.5073328018188" y="0" dx="0em" dy="0.95em" fill="rgb(50, 49, 63)" stroke="none" stroke-width="1px">100</text><text style="text-anchor: middle; visibility: hidden; font-family: &quot;Helvetica Neue&quot;, sans-serif; font-size: 12px; font-weight: 200;" x="1038.007999420166" y="0" dx="0em" dy="0.95em" fill="rgb(50, 49, 63)" stroke="none" stroke-width="1px">110</text></g><line x1="0" y1="0" x2="1038.007999420166" y2="0" fill="rgb(0, 0, 0)" stroke="rgb(204, 204, 204)" stroke-width="1px"></line></g></g></g></g></svg>