<svg viewBox="0 0 1068 400" xmlns="http://www.w3.org/2000/svg"><g><g><g><g><g><line x1="59.98000144958496" y1="378.6199998855591" x2="54.98000144958496" y2="378.6199998855591" style="visibility: inherit;" fill="rgb(0, 0, 0)" stroke="rgb(204, 204, 204)" stroke-width="1px"></line><line x1="59.98000144958496" y1="336.55111100938586" x2="54.98000144958496" y2="336.55111100938586" style="visibility: inherit;" fill="rgb(0, 0, 0)" stroke="rgb(204, 204, 204)" stroke-width="1px"></line><line x1="59.98000144958496" y1="294.48222213321264" x2="54.98000144958496" y2="294.48222213321264" style="visibility: inherit;" fill="rgb(0, 0, 0)" stroke="rgb(204, 204, 204)" stroke-width="1px"></line><line x1="59.98000144958496" y1="252.41333325703937" x2="54.98000144958496" y2="252.41333325703937" style="visibility: inherit;" fill="rgb(0, 0, 0)" stroke="rgb(204, 204, 204)" stroke-width="1px"></line><line x1="59.98000144958496" y1="210.34444438086615" x2="54.98000144958496" y2="210.34444438086615" style="visibility: inherit;" fill="rgb(0, 0, 0)" stroke="rgb(204, 204, 204)" stroke-width="1px"></line><line x1="59.98000144958496" y1="168.2755555046929" x2="54.98000144958496" y2="168.2755555046929" style="visibility: inherit;" fill="rgb(0, 0, 0)" stroke="rgb(204, 204, 204)" stroke-width="1px"></line><line x1="59.98000144958496" y1="126.20666662851971" x2="54.98000144958496" y2="126.20666662851971" style="visibility: inherit;" fill="rgb(0, 0, 0)" stroke="rgb(204, 204, 204)" stroke-width="1px"></line><line x1="59.98000144958496" y1="84.1377777523465" x2="54.98000144958496" y2="84.1377777523465" style="visibility: inherit;" fill="rgb(0, 0, 0)" stroke="rgb(204, 204, 204)" stroke-width="1px"></line><line x1="59.98000144958496" y1="42.068888876173276" x2="54.98000144958496" y2="42.068888876173276" style="visibility: inherit;" fill="rgb(0, 0, 0)" stroke="rgb(204, 204, 204)" stroke-width="1px"></line><line x1="59.98000144958496" y1="0" x2="54.98000144958496" y2="0" style="visibility: inherit;" fill="rgb(0, 0, 0)" stroke="rgb(204, 204, 204)" stroke-width="1px"></line></g><g transform="translate(49.98000144958496, 0)"><text style="text-anchor: end; visibility: hidden; font-family: &quot;Helvetica Neue&quot;, sans-serif; font-size: 12px; font-weight: 200;" x="0" y="378.6199998855591" dx="0em" dy="0.3em" fill="rgb(50, 49, 63)" stroke="none" stroke-width="1px">-0.05</text><text style="text-anchor: end; visibility: inherit; font-family: &quot;Helvetica Neue&quot;, sans-serif; font-size: 12px; font-weight: 200;" x="0" y="336.55111100938586" dx="0em" dy="0.3em" fill="rgb(50, 49, 63)" stroke="none" stroke-width="1px">0</text><text style="text-anchor: end; visibility: inherit; font-family: &quot;Helvetica Neue&quot;, sans-serif; font-size: 12px; font-weight: 200;" x="0" y="294.48222213321264" dx="0em" dy="0.3em" fill="rgb(50, 49, 63)" stroke="none" stroke-width="1px">0.05</text><text style="text-anchor: end; visibility: inherit; font-family: &quot;Helvetica Neue&quot;, sans-serif; font-size: 12px; font-weight: 200;" x="0" y="252.41333325703937" dx="0em" dy="0.3em" fill="rgb(50, 49, 63)" stroke="none" stroke-width="1px">0.1</text><text style="text-anchor: end; visibility: inherit; font-family: &quot;Helvetica Neue&quot;, sans-serif; font-size: 12px; font-weight: 200;" x="0" y="210.34444438086615" dx="0em" dy="0.3em" fill="rgb(50, 49, 63)" stroke="none" stroke-width="1px">0.15</text><text style="text-anchor: end; visibility: inherit; font-family: &quot;Helvetica Neue&quot;, sans-serif; font-size: 12px; font-weight: 200;" x="0" y="168.2755555046929" dx="0em" dy="0.3em" fill="rgb(50, 49, 63)" stroke="none" stroke-width="1px">0.2</text><text style="text-anchor: end; visibility: inherit; font-family: &quot;Helvetica Neue&quot;, sans-serif; font-size: 12px; font-weight: 200;" x="0" y="126.20666662851971" dx="0em" dy="0.3em" fill="rgb(50, 49, 63)" stroke="none" stroke-width="1px">0.25</text><text style="text-anchor: end; visibility: inherit; font-family: &quot;Helvetica Neue&quot;, sans-serif; font-size: 12px; font-weight: 200;" x="0" y="84.1377777523465" dx="0em" dy="0.3em" fill="rgb(50, 49, 63)" stroke="none" stroke-width="1px">0.3</text><text style="text-anchor: end; visibility: inherit; font-family: &quot;Helvetica Neue&quot;, sans-serif; font-size: 12px; font-weight: 200;" x="0" y="42.068888876173276" dx="0em" dy="0.3em" fill="rgb(50, 49, 63)" stroke="none" stroke-width="1px">0.35</text><text style="text-anchor: end; visibility: hidden; font-family: &quot;Helvetica Neue&quot;, sans-serif; font-size: 12px; font-weight: 200;" x="0" y="0" dx="0em" dy="0.3em" fill="rgb(50, 49, 63)" stroke="none" stroke-width="1px">0.4</text></g><line x1="59.98000144958496" y1="0" x2="59.98000144958496" y2="378.6199998855591" fill="rgb(0, 0, 0)" stroke="rgb(204, 204, 204)" stroke-width="1px"></line></g></g><g transform="translate(59, 0)" clip-path="url(#clip_0)"><clipPath id="clip_0"><rect width="1008" height="378"></rect></clipPath><g><g><g><line x1="0" y1="0" x2="0" y2="378.6199998855591" fill="rgb(0, 0, 0)" stroke="rgb(60, 60, 60)" stroke-width="1px" opacity="0.25"></line><line x1="84.00166654586792" y1="0" x2="84.00166654586792" y2="378.6199998855591" fill="rgb(0, 0, 0)" stroke="rgb(60, 60, 60)" stroke-width="1px" opacity="0.25"></line><line x1="168.00333309173584" y1="0" x2="168.00333309173584" y2="378.6199998855591" fill="rgb(0, 0, 0)" stroke="rgb(60, 60, 60)" stroke-width="1px" opacity="0.25"></line><line x1="252.00499963760376" y1="0" x2="252.00499963760376" y2="378.6199998855591" fill="rgb(0, 0, 0)" stroke="rgb(60, 60, 60)" stroke-width="1px" opacity="0.25"></line><line x1="336.0066661834717" y1="0" x2="336.0066661834717" y2="378.6199998855591" fill="rgb(0, 0, 0)" stroke="rgb(60, 60, 60)" stroke-width="1px" opacity="0.25"></line><line x1="420.0083327293396" y1="0" x2="420.0083327293396" y2="378.6199998855591" fill="rgb(0, 0, 0)" stroke="rgb(60, 60, 60)" stroke-width="1px" opacity="0.25"></line><line x1="504.0099992752075" y1="0" x2="504.0099992752075" y2="378.6199998855591" fill="rgb(0, 0, 0)" stroke="rgb(60, 60, 60)" stroke-width="1px" opacity="0.25"></line><line x1="588.0116658210754" y1="0" x2="588.0116658210754" y2="378.6199998855591" fill="rgb(0, 0, 0)" stroke="rgb(60, 60, 60)" stroke-width="1px" opacity="0.25"></line><line x1="672.0133323669434" y1="0" x2="672.0133323669434" y2="378.6199998855591" fill="rgb(0, 0, 0)" stroke="rgb(60, 60, 60)" stroke-width="1px" opacity="0.25"></line><line x1="756.0149989128113" y1="0" x2="756.0149989128113" y2="378.6199998855591" fill="rgb(0, 0, 0)" stroke="rgb(60, 60, 60)" stroke-width="1px" opacity="0.25"></line><line x1="840.0166654586792" y1="0" x2="840.0166654586792" y2="378.6199998855591" fill="rgb(0, 0, 0)" stroke="rgb(60, 60, 60)" stroke-width="1px" opacity="0.25"></line><line x1="924.0183320045471" y1="0" x2="924.0183320045471" y2="378.6199998855591" fill="rgb(0, 0, 0)" stroke="rgb(60, 60, 60)" stroke-width="1px" opacity="0.25"></line><line x1="1008.019998550415" y1="0" x2="1008.019998550415" y2="378.6199998855591" fill="rgb(0, 0, 0)" stroke="rgb(60, 60, 60)" stroke-width="1px" opacity="0.25"></line></g><g><line x1="0" y1="378.6199998855591" x2="1008.019998550415" y2="378.6199998855591" fill="rgb(0, 0, 0)" stroke="rgb(60, 60, 60)" stroke-width="1px" opacity="0.25"></line><line x1="0" y1="336.55111100938586" x2="1008.019998550415" y2="336.55111100938586" fill="rgb(0, 0, 0)" stroke="rgb(60, 60, 60)" stroke-width="1px" opacity="0.25"></line><line x1="0" y1="294.48222213321264" x2="1008.019998550415" y2="294.48222213321264" fill="rgb(0, 0, 0)" stroke="rgb(60, 60, 60)" stroke-width="1px" opacity="0.25"></line><line x1="0" y1="252.41333325703937" x2="1008.019998550415" y2="252.41333325703937" fill="rgb(0, 0, 0)" stroke="rgb(60, 60, 60)" stroke-width="1px" opacity="0.25"></line><line x1="0" y1="210.34444438086615" x2="1008.019998550415" y2="210.34444438086615" fill="rgb(0, 0, 0)" stroke="rgb(60, 60, 60)" stroke-width="1px" opacity="0.25"></line><line x1="0" y1="168.2755555046929" x2="1008.019998550415" y2="168.2755555046929" fill="rgb(0, 0, 0)" stroke="rgb(60, 60, 60)" stroke-width="1px" opacity="0.25"></line><line x1="0" y1="126.20666662851971" x2="1008.019998550415" y2="126.20666662851971" fill="rgb(0, 0, 0)" stroke="rgb(60, 60, 60)" stroke-width="1px" opacity="0.25"></line><line x1="0" y1="84.1377777523465" x2="1008.019998550415" y2="84.1377777523465" fill="rgb(0, 0, 0)" stroke="rgb(60, 60, 60)" stroke-width="1px" opacity="0.25"></line><line x1="0" y1="42.068888876173276" x2="1008.019998550415" y2="42.068888876173276" fill="rgb(0, 0, 0)" stroke="rgb(60, 60, 60)" stroke-width="1px" opacity="0.25"></line><line x1="0" y1="0" x2="1008.019998550415" y2="0" fill="rgb(0, 0, 0)" stroke="rgb(60, 60, 60)" stroke-width="1px" opacity="0.25"></line></g></g></g><g><g><line x1="0" y1="336.55111100938586" x2="1008.019998550415" y2="336.55111100938586" fill="rgb(0, 0, 0)" stroke="rgb(153, 153, 153)" stroke-width="1.5px"></line></g></g><g><g><line x1="84.00166654586792" y1="0" x2="84.00166654586792" y2="378.6199998855591" fill="rgb(0, 0, 0)" stroke="rgb(153, 153, 153)" stroke-width="1.5px"></line></g></g><g><g><g><g><g><path style="fill: none;" stroke="rgb(0, 119, 187)" stroke-width="2px" d="M84.00166654586792,331.9671900289743L92.4018332004547,327.35392927682534L100.80199985504152,325.1144714845447L109.2021665096283,322.7059618664099L117.6023331642151,319.5794397739735L126.00249981880188,314.92349903969523L134.40266647338868,309.95555430831973L142.80283312797545,303.48820788263913L151.20299978256224,295.02043952579294L159.60316643714904,284.82760044240234L168.00333309173584,272.42758300533467L176.4034997463226,257.301778259183L184.8036664009094,240.0284259043989L193.20383305549623,222.73857005077812L201.60399971008303,208.51602467174214L210.0041663646698,197.67323680580597L218.4043330192566,189.07486243480733L226.8044996738434,181.721635370571L235.2046663284302,176.24881256026052L243.60483298301696,171.7882782589196L252.00499963760376,168.07095983177928L260.4051662921906,164.04535688338248L268.80533294677736,159.79597803009653L277.2054996013642,156.53656545908015L285.6056662559509,152.09453271433838L294.0058329105377,150.69808882007328L302.4059995651245,148.21687626435556L310.8061662197113,147.1287590203472L319.2063328742981,146.26039938599882L327.6064995288849,145.22780832182022L336.0066661834717,144.6476266181242L344.4068328380585,142.5508413497842L352.8069994926452,140.82260377233234L361.20716614723204,139.76130842654408L369.6073328018188,140.00680557302795L378.00749945640564,140.19637029850216L386.40766611099247,139.89558408030283L394.80783276557924,138.1753110367435L403.20799942016606,136.15224292714507L411.6081660747528,135.17107309884742L420.0083327293396,134.5057820866795L428.40849938392637,135.46068319126576L436.8086660385132,134.86499289957962L445.20883269309996,135.47158755255782L453.6089993476868,133.9758611107495L462.00916600227356,132.05061054302288L470.4093326568604,132.1621695573766L478.8094993114471,132.5424573581481L487.2096659660339,132.2365473327852L495.6098326206207,131.52120043782426L504.0099992752075,131.10248870078067L512.4101659297943,129.68378415528773L520.8103325843812,130.5108520261476L529.2104992389679,131.10594847508688L537.6106658935547,129.87933379573292L546.0108325481415,129.91134238877493L554.4109992027284,128.97606722136183L562.8111658573151,126.76801546751145L571.2113325119018,128.0294712797603L579.6114991664886,128.87980435099956L588.0116658210754,127.87246949608624L596.4118324756622,127.83061142731671L604.811999130249,127.9327271958044L613.2121657848357,127.83620462279549L621.6123324394226,127.39998437633179L630.0124990940094,128.26783637392293L638.4126657485962,126.75961302466004L646.812832403183,127.10595720772099L655.2129990577698,127.71100706910889L663.6131657123566,127.1960605236309L672.0133323669434,126.52939253836291L680.4134990215302,125.46566621550673L688.813665676117,126.80982574775521L697.2138323307037,127.14926426776736L705.6139989852904,125.51021992941196L714.0141656398773,126.36885885645992L722.4143322944641,126.35131355751147L730.8144989490509,125.06894166086525L739.2146656036376,125.17617102456654L747.6148322582245,125.41971473694517L756.0149989128113,125.37650456545714L764.415165567398,124.86440407424959L772.8153322219849,126.66701545035204L781.2154988765717,126.09740278059522L789.6156655311585,126.35348363949959L798.0158321857452,126.16306287326222L806.4159988403321,126.50579748812766L814.8161654949189,125.9640424260588L823.2163321495055,126.49483464573507L831.6164988040923,125.70697538298973L840.0166654586792,125.73420541012439L848.416832113266,125.12703821359793L856.8169987678527,124.99149221310842L865.2171654224395,124.5833268793269L873.6173320770264,124.06123846888579L882.0174987316132,125.04046185958725L890.4176653861999,125.79644480811422L898.8178320407868,125.2827158479632L907.2179986953736,125.82123152952036L915.6181653499603,126.66223020166308" fill="none"></path></g><g><path style="fill: none;" stroke="rgb(255, 112, 67)" stroke-width="2px" d="M84.00166654586792,319.19595878102433L92.4018332004547,318.8059551730682L100.80199985504152,316.45001599021344L109.2021665096283,313.8764265153151L117.6023331642151,306.42341469127797L126.00249981880188,299.73558438155425L134.40266647338868,291.45054781042364L142.80283312797545,279.53176239549066L151.20299978256224,264.29950350954505L159.60316643714904,245.2267234369422L168.00333309173584,221.18753419193604L176.4034997463226,194.4846018090123L184.8036664009094,169.7869557495051L193.20383305549623,150.3490329405807L201.60399971008303,136.15513033839258L210.0041663646698,126.01706970525208L218.4043330192566,118.66912020643446L226.8044996738434,112.73217787597252L235.2046663284302,107.27330800090095L243.60483298301696,102.46621019288011L252.00499963760376,97.68816698809945L260.4051662921906,92.5874359151448L268.80533294677736,88.52550626944605L277.2054996013642,84.5938611388392L285.6056662559509,81.10543403200438L294.0058329105377,78.12630189763058L302.4059995651245,75.62745708724873L310.8061662197113,73.37310264959513L319.2063328742981,71.83641012873767L327.6064995288849,70.70534957420875L336.0066661834717,69.65231333603629L344.4068328380585,68.79273031744071L352.8069994926452,67.76841916695383L361.20716614723204,67.19751317973055L369.6073328018188,66.6521628991378L378.00749945640564,66.38111073373392L386.40766611099247,65.97200209900609L394.80783276557924,65.3334108837123L403.20799942016606,64.9190528113304L411.6081660747528,64.60804130910634L420.0083327293396,63.96591171375246L428.40849938392637,63.56502726953306L436.8086660385132,63.36817727365053L445.20883269309996,63.284389952281856L453.6089993476868,63.14987554989983L462.00916600227356,63.343728257434805L470.4093326568604,62.74243316492249L478.8094993114471,62.57510481028015L487.2096659660339,62.34054645449129L495.6098326206207,62.199811441019904L504.0099992752075,61.97497042700326L512.4101659297943,62.05846917116003L520.8103325843812,61.79031636819752L529.2104992389679,61.538944013929154L537.6106658935547,61.08548526924602L546.0108325481415,60.90389069492744L554.4109992027284,60.66077260733215L562.8111658573151,60.60850175873105L571.2113325119018,60.32753255235127L579.6114991664886,60.33679304204077L588.0116658210754,60.39850733222704L596.4118324756622,60.34818459531732L604.811999130249,60.32422961610132L613.2121657848357,60.06336926281756L621.6123324394226,60.103421083158594L630.0124990940094,59.990161470889404L638.4126657485962,59.884773725949344L646.812832403183,59.70921505623522L655.2129990577698,59.60076052294198L663.6131657123566,59.57624914201415L672.0133323669434,59.6457843230188L680.4134990215302,59.49094742931504L688.813665676117,59.35748395404454L697.2138323307037,59.35227985404424L705.6139989852904,59.25243805862317L714.0141656398773,59.367255663422895L722.4143322944641,59.255184881320645L730.8144989490509,59.30650709773903L739.2146656036376,59.39657775542753L747.6148322582245,59.353900814619806L756.0149989128113,59.300210636946474L764.415165567398,59.1275965244086L772.8153322219849,58.99282471223228L781.2154988765717,58.95564229543959L789.6156655311585,58.998858866136004L798.0158321857452,58.99982412683005L806.4159988403321,59.0004032832465L814.8161654949189,58.96642810097791L823.2163321495055,59.09269169048514L831.6164988040923,58.98436916774244L840.0166654586792,58.88505297797843L848.416832113266,58.67570526379143L856.8169987678527,58.497047940366826L865.2171654224395,58.4709762244085L873.6173320770264,58.51461052267098L882.0174987316132,58.60943645386533L890.4176653861999,58.49160933052957L898.8178320407868,58.41155506213346L907.2179986953736,58.422799828933364L915.6181653499603,58.32035002773284" fill="none"></path></g></g></g></g><g opacity="0.2"><g><g><g><path style="fill: none;" stroke="rgb(0, 119, 187)" stroke-width="2px" d="M84.00166654586792,331.9671900289743L92.4018332004547,324.58597282553603L100.80199985504152,322.9645920039553L109.2021665096283,319.87355455548334L117.6023331642151,315.49745253008854L126.00249981880188,308.4826568655241L134.40266647338868,302.851313855337L142.80283312797545,294.05875470747105L151.20299978256224,282.53212597877047L159.60316643714904,269.6924223178055L168.00333309173584,253.94002409524603L176.4034997463226,234.69538510142857L184.8036664009094,214.17479786465688L193.20383305549623,196.83765889787966L201.60399971008303,187.19892467138735L210.0041663646698,181.41670218097002L218.4043330192566,176.18093942217828L226.8044996738434,170.69366175777145L235.2046663284302,168.0404120742661L243.60483298301696,165.0978845174116L252.00499963760376,162.49518605764587L260.4051662921906,158.00708492496707L268.80533294677736,153.4219936467403L277.2054996013642,151.64748521340488L285.6056662559509,145.43151516929328L294.0058329105377,148.60342893387096L302.4059995651245,144.49506377952187L310.8061662197113,145.49658482485097L319.2063328742981,144.95786073435818L327.6064995288849,143.6789222962497L336.0066661834717,143.77735425497485L344.4068328380585,139.4056638644643L352.8069994926452,138.2302476124714L361.20716614723204,138.16936548388026L369.6073328018188,140.37505128220297L378.00749945640564,140.48071738182531L386.40766611099247,139.44440475765757L394.80783276557924,135.59490148737382L403.20799942016606,133.1176407740155L411.6081660747528,133.69931835967992L420.0083327293396,133.50784556976149L428.40849938392637,136.89303484699647L436.8086660385132,133.97145746248046L445.20883269309996,136.38147953176255L453.6089993476868,131.73227144842556L462.00916600227356,129.16273469173305L470.4093326568604,132.32950807889674L478.8094993114471,133.11288905928404L487.2096659660339,131.77768229475117L495.6098326206207,130.44818009539725L504.0099992752075,130.4744210952204L512.4101659297943,127.55572733705858L520.8103325843812,131.7514538324339L529.2104992389679,131.99859314849417L537.6106658935547,128.03941177670396L546.0108325481415,129.95935527833788L554.4109992027284,127.57315447024266L562.8111658573151,123.45593783673675L571.2113325119018,129.92165499813325L579.6114991664886,130.15530395785828L588.0116658210754,126.36146721371634L596.4118324756622,127.76782432416249L604.811999130249,128.0859008485359L613.2121657848357,127.69142076328222L621.6123324394226,126.74565400663619L630.0124990940094,129.56961437030978L638.4126657485962,124.49727800076548L646.812832403183,127.6254734823124L655.2129990577698,128.61858186119082L663.6131657123566,126.42364070541393L672.0133323669434,125.52939056046083L680.4134990215302,123.8700767312225L688.813665676117,128.82606504612798L697.2138323307037,127.65842204778554L705.6139989852904,123.05165342187877L714.0141656398773,127.65681724703194L722.4143322944641,126.32499560908877L730.8144989490509,123.14538381589597L739.2146656036376,125.33701507011844L747.6148322582245,125.78503030551303L756.0149989128113,125.31168930822511L764.415165567398,124.09625333743836L772.8153322219849,129.37093251450585L781.2154988765717,125.24298377595997L789.6156655311585,126.73760492785618L798.0158321857452,125.87743172390614L806.4159988403321,127.01989941042586L814.8161654949189,125.1514098329555L823.2163321495055,127.29102297524949L831.6164988040923,124.52518648887175L840.0166654586792,125.77505045082634L848.416832113266,124.21628741880818L856.8169987678527,124.78817321237418L865.2171654224395,123.9710788786546L873.6173320770264,123.27810585322422L882.0174987316132,126.50929694563939L890.4176653861999,126.93041923090465L898.8178320407868,124.51212240773665L907.2179986953736,126.62900505185607L915.6181653499603,127.92372820987725" fill="none"></path></g><g><path style="fill: none;" stroke="rgb(255, 112, 67)" stroke-width="2px" d="M84.00166654586792,319.19595878102433L92.4018332004547,318.5719530082945L100.80199985504152,314.18831437467287L109.2021665096283,310.84988529283464L117.6023331642151,296.6927624538151L126.00249981880188,290.4839074442948L134.40266647338868,279.6028129531217L142.80283312797545,262.1540588401784L151.20299978256224,241.83488036674126L159.60316643714904,216.90586784720782L168.00333309173584,185.34678400159464L176.4034997463226,154.57551941345312L184.8036664009094,132.82112875976907L193.20383305549623,121.23022964151119L201.60399971008303,114.88096083480053L210.0041663646698,110.81712890136487L218.4043330192566,107.65030536417765L226.8044996738434,103.82827176929408L235.2046663284302,99.08583479217543L243.60483298301696,95.25600286862965L252.00499963760376,90.52136422017321L260.4051662921906,84.93650714744166L268.80533294677736,82.43269199661296L277.2054996013642,78.69644001701369L285.6056662559509,75.87281816599904L294.0058329105377,73.65761640070752L302.4059995651245,71.87919626553509L310.8061662197113,69.99157445407991L319.2063328742981,69.5313727629624L327.6064995288849,69.00875936753539L336.0066661834717,68.07275932797592L344.4068328380585,67.50335596057567L352.8069994926452,66.23195256350579L361.20716614723204,66.34115423978852L369.6073328018188,65.83413750168597L378.00749945640564,65.97453249261753L386.40766611099247,65.358339153244L394.80783276557924,64.37552406669948L403.20799942016606,64.29751570506562L411.6081660747528,64.1415240568096L420.0083327293396,63.00271732200912L428.40849938392637,62.96370060368628L436.8086660385132,63.072902279969014L445.20883269309996,63.15870897026508L453.6089993476868,62.94810394636187L462.00916600227356,63.63450731870705L470.4093326568604,61.8404905262102L478.8094993114471,62.32411227832614L487.2096659660339,61.988708920815725L495.6098326206207,61.988708920815725L504.0099992752075,61.63770890598096L512.4101659297943,62.183717287394586L520.8103325843812,61.38808716375485L529.2104992389679,61.161885482527225L537.6106658935547,60.40529715222215L546.0108325481415,60.63149883344977L554.4109992027284,60.29609547593941L562.8111658573151,60.53009548582929L571.2113325119018,59.906078742781744L579.6114991664886,60.3506837765749L588.0116658210754,60.49107876750645L596.4118324756622,60.2727004899528L604.811999130249,60.288297147277206L613.2121657848357,59.67207873289192L621.6123324394226,60.16349881367006L630.0124990940094,59.82027205248568L638.4126657485962,59.72669210853917L646.812832403183,59.44587705166424L655.2129990577698,59.438078723002036L663.6131657123566,59.53948207062257L672.0133323669434,59.75008709452578L680.4134990215302,59.2586920887594L688.813665676117,59.15728874113887L697.2138323307037,59.34447370404371L705.6139989852904,59.10267536549162L714.0141656398773,59.53948207062257L722.4143322944641,59.08707870816721L730.8144989490509,59.38349042236655L739.2146656036376,59.53168374196031L747.6148322582245,59.28988540340828L756.0149989128113,59.21967537043656L764.415165567398,58.868675355601795L772.8153322219849,58.790666993967875L781.2154988765717,58.89986867025061L789.6156655311585,59.0636837221806L798.0158321857452,59.001272017871145L806.4159988403321,59.001272017871145L814.8161654949189,58.91546532757502L823.2163321495055,59.282087074746016L831.6164988040923,58.82188538362851L840.0166654586792,58.736078693332445L848.416832113266,58.36168369251101L856.8169987678527,58.22906195522984L865.2171654224395,58.4318686504709L873.6173320770264,58.58006197006466L882.0174987316132,58.75167535065685L890.4176653861999,58.31486864552596L898.8178320407868,58.29147365953929L907.2179986953736,58.43966697913311L915.6181653499603,58.16667532593215" fill="none"></path></g></g></g></g></g><g><g opacity="0.310926"><span fill="rgb(0, 0, 0)" stroke="none" stroke-width="1px">Alt + Scroll to Zoom</span></g></g></g><g transform="translate(59, 378)" clip-path="url(#clip_1)"><clipPath id="clip_1"><rect width="1008" height="21"></rect></clipPath><g><g><line x1="0" y1="0" x2="0" y2="5" style="visibility: inherit;" fill="rgb(0, 0, 0)" stroke="rgb(204, 204, 204)" stroke-width="1px"></line><line x1="84.00166654586792" y1="0" x2="84.00166654586792" y2="5" style="visibility: inherit;" fill="rgb(0, 0, 0)" stroke="rgb(204, 204, 204)" stroke-width="1px"></line><line x1="168.00333309173584" y1="0" x2="168.00333309173584" y2="5" style="visibility: inherit;" fill="rgb(0, 0, 0)" stroke="rgb(204, 204, 204)" stroke-width="1px"></line><line x1="252.00499963760376" y1="0" x2="252.00499963760376" y2="5" style="visibility: inherit;" fill="rgb(0, 0, 0)" stroke="rgb(204, 204, 204)" stroke-width="1px"></line><line x1="336.0066661834717" y1="0" x2="336.0066661834717" y2="5" style="visibility: inherit;" fill="rgb(0, 0, 0)" stroke="rgb(204, 204, 204)" stroke-width="1px"></line><line x1="420.0083327293396" y1="0" x2="420.0083327293396" y2="5" style="visibility: inherit;" fill="rgb(0, 0, 0)" stroke="rgb(204, 204, 204)" stroke-width="1px"></line><line x1="504.0099992752075" y1="0" x2="504.0099992752075" y2="5" style="visibility: inherit;" fill="rgb(0, 0, 0)" stroke="rgb(204, 204, 204)" stroke-width="1px"></line><line x1="588.0116658210754" y1="0" x2="588.0116658210754" y2="5" style="visibility: inherit;" fill="rgb(0, 0, 0)" stroke="rgb(204, 204, 204)" stroke-width="1px"></line><line x1="672.0133323669434" y1="0" x2="672.0133323669434" y2="5" style="visibility: inherit;" fill="rgb(0, 0, 0)" stroke="rgb(204, 204, 204)" stroke-width="1px"></line><line x1="756.0149989128113" y1="0" x2="756.0149989128113" y2="5" style="visibility: inherit;" fill="rgb(0, 0, 0)" stroke="rgb(204, 204, 204)" stroke-width="1px"></line><line x1="840.0166654586792" y1="0" x2="840.0166654586792" y2="5" style="visibility: inherit;" fill="rgb(0, 0, 0)" stroke="rgb(204, 204, 204)" stroke-width="1px"></line><line x1="924.0183320045471" y1="0" x2="924.0183320045471" y2="5" style="visibility: inherit;" fill="rgb(0, 0, 0)" stroke="rgb(204, 204, 204)" stroke-width="1px"></line><line x1="1008.019998550415" y1="0" x2="1008.019998550415" y2="5" style="visibility: inherit;" fill="rgb(0, 0, 0)" stroke="rgb(204, 204, 204)" stroke-width="1px"></line></g><g transform="translate(0, 8)"><text style="text-anchor: middle; visibility: hidden; font-family: &quot;Helvetica Neue&quot;, sans-serif; font-size: 12px; font-weight: 200;" x="0" y="0" dx="0em" dy="0.95em" fill="rgb(50, 49, 63)" stroke="none" stroke-width="1px">-10</text><text style="text-anchor: middle; visibility: inherit; font-family: &quot;Helvetica Neue&quot;, sans-serif; font-size: 12px; font-weight: 200;" x="84.00166654586792" y="0" dx="0em" dy="0.95em" fill="rgb(50, 49, 63)" stroke="none" stroke-width="1px">0</text><text style="text-anchor: middle; visibility: inherit; font-family: &quot;Helvetica Neue&quot;, sans-serif; font-size: 12px; font-weight: 200;" x="168.00333309173584" y="0" dx="0em" dy="0.95em" fill="rgb(50, 49, 63)" stroke="none" stroke-width="1px">10</text><text style="text-anchor: middle; visibility: inherit; font-family: &quot;Helvetica Neue&quot;, sans-serif; font-size: 12px; font-weight: 200;" x="252.00499963760376" y="0" dx="0em" dy="0.95em" fill="rgb(50, 49, 63)" stroke="none" stroke-width="1px">20</text><text style="text-anchor: middle; visibility: inherit; font-family: &quot;Helvetica Neue&quot;, sans-serif; font-size: 12px; font-weight: 200;" x="336.0066661834717" y="0" dx="0em" dy="0.95em" fill="rgb(50, 49, 63)" stroke="none" stroke-width="1px">30</text><text style="text-anchor: middle; visibility: inherit; font-family: &quot;Helvetica Neue&quot;, sans-serif; font-size: 12px; font-weight: 200;" x="420.0083327293396" y="0" dx="0em" dy="0.95em" fill="rgb(50, 49, 63)" stroke="none" stroke-width="1px">40</text><text style="text-anchor: middle; visibility: inherit; font-family: &quot;Helvetica Neue&quot;, sans-serif; font-size: 12px; font-weight: 200;" x="504.0099992752075" y="0" dx="0em" dy="0.95em" fill="rgb(50, 49, 63)" stroke="none" stroke-width="1px">50</text><text style="text-anchor: middle; visibility: inherit; font-family: &quot;Helvetica Neue&quot;, sans-serif; font-size: 12px; font-weight: 200;" x="588.0116658210754" y="0" dx="0em" dy="0.95em" fill="rgb(50, 49, 63)" stroke="none" stroke-width="1px">60</text><text style="text-anchor: middle; visibility: inherit; font-family: &quot;Helvetica Neue&quot;, sans-serif; font-size: 12px; font-weight: 200;" x="672.0133323669434" y="0" dx="0em" dy="0.95em" fill="rgb(50, 49, 63)" stroke="none" stroke-width="1px">70</text><text style="text-anchor: middle; visibility: inherit; font-family: &quot;Helvetica Neue&quot;, sans-serif; font-size: 12px; font-weight: 200;" x="756.0149989128113" y="0" dx="0em" dy="0.95em" fill="rgb(50, 49, 63)" stroke="none" stroke-width="1px">80</text><text style="text-anchor: middle; visibility: inherit; font-family: &quot;Helvetica Neue&quot;, sans-serif; font-size: 12px; font-weight: 200;" x="840.0166654586792" y="0" dx="0em" dy="0.95em" fill="rgb(50, 49, 63)" stroke="none" stroke-width="1px">90</text><text style="text-anchor: middle; visibility: inherit; font-family: &quot;Helvetica Neue&quot;, sans-serif; font-size: 12px; font-weight: 200;" x="924.0183320045471" y="0" dx="0em" dy="0.95em" fill="rgb(50, 49, 63)" stroke="none" stroke-width="1px">100</text><text style="text-anchor: middle; visibility: hidden; font-family: &quot;Helvetica Neue&quot;, sans-serif; font-size: 12px; font-weight: 200;" x="1008.019998550415" y="0" dx="0em" dy="0.95em" fill="rgb(50, 49, 63)" stroke="none" stroke-width="1px">110</text></g><line x1="0" y1="0" x2="1008.019998550415" y2="0" fill="rgb(0, 0, 0)" stroke="rgb(204, 204, 204)" stroke-width="1px"></line></g></g></g></g></svg>