<svg viewBox="0 0 1068 400" xmlns="http://www.w3.org/2000/svg"><g><g><g><g><g><line x1="29.992000579833984" y1="378.6199998855591" x2="24.992000579833984" y2="378.6199998855591" style="visibility: inherit;" fill="rgb(0, 0, 0)" stroke="rgb(204, 204, 204)" stroke-width="1px"></line><line x1="29.992000579833984" y1="336.55111100938586" x2="24.992000579833984" y2="336.55111100938586" style="visibility: inherit;" fill="rgb(0, 0, 0)" stroke="rgb(204, 204, 204)" stroke-width="1px"></line><line x1="29.992000579833984" y1="294.48222213321264" x2="24.992000579833984" y2="294.48222213321264" style="visibility: inherit;" fill="rgb(0, 0, 0)" stroke="rgb(204, 204, 204)" stroke-width="1px"></line><line x1="29.992000579833984" y1="252.4133332570394" x2="24.992000579833984" y2="252.4133332570394" style="visibility: inherit;" fill="rgb(0, 0, 0)" stroke="rgb(204, 204, 204)" stroke-width="1px"></line><line x1="29.992000579833984" y1="210.34444438086618" x2="24.992000579833984" y2="210.34444438086618" style="visibility: inherit;" fill="rgb(0, 0, 0)" stroke="rgb(204, 204, 204)" stroke-width="1px"></line><line x1="29.992000579833984" y1="168.2755555046929" x2="24.992000579833984" y2="168.2755555046929" style="visibility: inherit;" fill="rgb(0, 0, 0)" stroke="rgb(204, 204, 204)" stroke-width="1px"></line><line x1="29.992000579833984" y1="126.20666662851971" x2="24.992000579833984" y2="126.20666662851971" style="visibility: inherit;" fill="rgb(0, 0, 0)" stroke="rgb(204, 204, 204)" stroke-width="1px"></line><line x1="29.992000579833984" y1="84.13777775234644" x2="24.992000579833984" y2="84.13777775234644" style="visibility: inherit;" fill="rgb(0, 0, 0)" stroke="rgb(204, 204, 204)" stroke-width="1px"></line><line x1="29.992000579833984" y1="42.068888876173276" x2="24.992000579833984" y2="42.068888876173276" style="visibility: inherit;" fill="rgb(0, 0, 0)" stroke="rgb(204, 204, 204)" stroke-width="1px"></line><line x1="29.992000579833984" y1="0" x2="24.992000579833984" y2="0" style="visibility: inherit;" fill="rgb(0, 0, 0)" stroke="rgb(204, 204, 204)" stroke-width="1px"></line></g><g transform="translate(19.992000579833984, 0)"><text style="text-anchor: end; visibility: hidden; font-family: &quot;Helvetica Neue&quot;, sans-serif; font-size: 12px; font-weight: 200;" x="0" y="378.6199998855591" dx="0em" dy="0.3em" fill="rgb(50, 49, 63)" stroke="none" stroke-width="1px">-1</text><text style="text-anchor: end; visibility: inherit; font-family: &quot;Helvetica Neue&quot;, sans-serif; font-size: 12px; font-weight: 200;" x="0" y="336.55111100938586" dx="0em" dy="0.3em" fill="rgb(50, 49, 63)" stroke="none" stroke-width="1px">0</text><text style="text-anchor: end; visibility: inherit; font-family: &quot;Helvetica Neue&quot;, sans-serif; font-size: 12px; font-weight: 200;" x="0" y="294.48222213321264" dx="0em" dy="0.3em" fill="rgb(50, 49, 63)" stroke="none" stroke-width="1px">1</text><text style="text-anchor: end; visibility: inherit; font-family: &quot;Helvetica Neue&quot;, sans-serif; font-size: 12px; font-weight: 200;" x="0" y="252.4133332570394" dx="0em" dy="0.3em" fill="rgb(50, 49, 63)" stroke="none" stroke-width="1px">2</text><text style="text-anchor: end; visibility: inherit; font-family: &quot;Helvetica Neue&quot;, sans-serif; font-size: 12px; font-weight: 200;" x="0" y="210.34444438086618" dx="0em" dy="0.3em" fill="rgb(50, 49, 63)" stroke="none" stroke-width="1px">3</text><text style="text-anchor: end; visibility: inherit; font-family: &quot;Helvetica Neue&quot;, sans-serif; font-size: 12px; font-weight: 200;" x="0" y="168.2755555046929" dx="0em" dy="0.3em" fill="rgb(50, 49, 63)" stroke="none" stroke-width="1px">4</text><text style="text-anchor: end; visibility: inherit; font-family: &quot;Helvetica Neue&quot;, sans-serif; font-size: 12px; font-weight: 200;" x="0" y="126.20666662851971" dx="0em" dy="0.3em" fill="rgb(50, 49, 63)" stroke="none" stroke-width="1px">5</text><text style="text-anchor: end; visibility: inherit; font-family: &quot;Helvetica Neue&quot;, sans-serif; font-size: 12px; font-weight: 200;" x="0" y="84.13777775234644" dx="0em" dy="0.3em" fill="rgb(50, 49, 63)" stroke="none" stroke-width="1px">6</text><text style="text-anchor: end; visibility: inherit; font-family: &quot;Helvetica Neue&quot;, sans-serif; font-size: 12px; font-weight: 200;" x="0" y="42.068888876173276" dx="0em" dy="0.3em" fill="rgb(50, 49, 63)" stroke="none" stroke-width="1px">7</text><text style="text-anchor: end; visibility: hidden; font-family: &quot;Helvetica Neue&quot;, sans-serif; font-size: 12px; font-weight: 200;" x="0" y="0" dx="0em" dy="0.3em" fill="rgb(50, 49, 63)" stroke="none" stroke-width="1px">8</text></g><line x1="29.992000579833984" y1="0" x2="29.992000579833984" y2="378.6199998855591" fill="rgb(0, 0, 0)" stroke="rgb(204, 204, 204)" stroke-width="1px"></line></g></g><g transform="translate(30, 0)" clip-path="url(#clip_0)"><clipPath id="clip_0"><rect width="1038" height="378"></rect></clipPath><g><g><g><line x1="0" y1="0" x2="0" y2="378.6199998855591" fill="rgb(0, 0, 0)" stroke="rgb(60, 60, 60)" stroke-width="1px" opacity="0.25"></line><line x1="86.50066661834717" y1="0" x2="86.50066661834717" y2="378.6199998855591" fill="rgb(0, 0, 0)" stroke="rgb(60, 60, 60)" stroke-width="1px" opacity="0.25"></line><line x1="173.00133323669434" y1="0" x2="173.00133323669434" y2="378.6199998855591" fill="rgb(0, 0, 0)" stroke="rgb(60, 60, 60)" stroke-width="1px" opacity="0.25"></line><line x1="259.5019998550415" y1="0" x2="259.5019998550415" y2="378.6199998855591" fill="rgb(0, 0, 0)" stroke="rgb(60, 60, 60)" stroke-width="1px" opacity="0.25"></line><line x1="346.0026664733887" y1="0" x2="346.0026664733887" y2="378.6199998855591" fill="rgb(0, 0, 0)" stroke="rgb(60, 60, 60)" stroke-width="1px" opacity="0.25"></line><line x1="432.50333309173584" y1="0" x2="432.50333309173584" y2="378.6199998855591" fill="rgb(0, 0, 0)" stroke="rgb(60, 60, 60)" stroke-width="1px" opacity="0.25"></line><line x1="519.003999710083" y1="0" x2="519.003999710083" y2="378.6199998855591" fill="rgb(0, 0, 0)" stroke="rgb(60, 60, 60)" stroke-width="1px" opacity="0.25"></line><line x1="605.5046663284302" y1="0" x2="605.5046663284302" y2="378.6199998855591" fill="rgb(0, 0, 0)" stroke="rgb(60, 60, 60)" stroke-width="1px" opacity="0.25"></line><line x1="692.0053329467773" y1="0" x2="692.0053329467773" y2="378.6199998855591" fill="rgb(0, 0, 0)" stroke="rgb(60, 60, 60)" stroke-width="1px" opacity="0.25"></line><line x1="778.5059995651245" y1="0" x2="778.5059995651245" y2="378.6199998855591" fill="rgb(0, 0, 0)" stroke="rgb(60, 60, 60)" stroke-width="1px" opacity="0.25"></line><line x1="865.0066661834717" y1="0" x2="865.0066661834717" y2="378.6199998855591" fill="rgb(0, 0, 0)" stroke="rgb(60, 60, 60)" stroke-width="1px" opacity="0.25"></line><line x1="951.5073328018188" y1="0" x2="951.5073328018188" y2="378.6199998855591" fill="rgb(0, 0, 0)" stroke="rgb(60, 60, 60)" stroke-width="1px" opacity="0.25"></line><line x1="1038.007999420166" y1="0" x2="1038.007999420166" y2="378.6199998855591" fill="rgb(0, 0, 0)" stroke="rgb(60, 60, 60)" stroke-width="1px" opacity="0.25"></line></g><g><line x1="0" y1="378.6199998855591" x2="1038.007999420166" y2="378.6199998855591" fill="rgb(0, 0, 0)" stroke="rgb(60, 60, 60)" stroke-width="1px" opacity="0.25"></line><line x1="0" y1="336.55111100938586" x2="1038.007999420166" y2="336.55111100938586" fill="rgb(0, 0, 0)" stroke="rgb(60, 60, 60)" stroke-width="1px" opacity="0.25"></line><line x1="0" y1="294.48222213321264" x2="1038.007999420166" y2="294.48222213321264" fill="rgb(0, 0, 0)" stroke="rgb(60, 60, 60)" stroke-width="1px" opacity="0.25"></line><line x1="0" y1="252.4133332570394" x2="1038.007999420166" y2="252.4133332570394" fill="rgb(0, 0, 0)" stroke="rgb(60, 60, 60)" stroke-width="1px" opacity="0.25"></line><line x1="0" y1="210.34444438086618" x2="1038.007999420166" y2="210.34444438086618" fill="rgb(0, 0, 0)" stroke="rgb(60, 60, 60)" stroke-width="1px" opacity="0.25"></line><line x1="0" y1="168.2755555046929" x2="1038.007999420166" y2="168.2755555046929" fill="rgb(0, 0, 0)" stroke="rgb(60, 60, 60)" stroke-width="1px" opacity="0.25"></line><line x1="0" y1="126.20666662851971" x2="1038.007999420166" y2="126.20666662851971" fill="rgb(0, 0, 0)" stroke="rgb(60, 60, 60)" stroke-width="1px" opacity="0.25"></line><line x1="0" y1="84.13777775234644" x2="1038.007999420166" y2="84.13777775234644" fill="rgb(0, 0, 0)" stroke="rgb(60, 60, 60)" stroke-width="1px" opacity="0.25"></line><line x1="0" y1="42.068888876173276" x2="1038.007999420166" y2="42.068888876173276" fill="rgb(0, 0, 0)" stroke="rgb(60, 60, 60)" stroke-width="1px" opacity="0.25"></line><line x1="0" y1="0" x2="1038.007999420166" y2="0" fill="rgb(0, 0, 0)" stroke="rgb(60, 60, 60)" stroke-width="1px" opacity="0.25"></line></g></g></g><g><g><line x1="0" y1="336.55111100938586" x2="1038.007999420166" y2="336.55111100938586" fill="rgb(0, 0, 0)" stroke="rgb(153, 153, 153)" stroke-width="1.5px"></line></g></g><g><g><line x1="86.50066661834717" y1="0" x2="86.50066661834717" y2="378.6199998855591" fill="rgb(0, 0, 0)" stroke="rgb(153, 153, 153)" stroke-width="1.5px"></line></g></g><g><g><g><g><g><path style="fill: none;" stroke="rgb(0, 119, 187)" stroke-width="2px" d="M86.50066661834717,18.94603697733959L95.15073328018188,29.167978365214594L103.80079994201661,40.97460267125973L112.45086660385132,50.87763409164046L121.10093326568604,59.203323706421656L129.75099992752075,69.50371583566977L138.40106658935548,81.47605498355887L147.05113325119018,94.62687418256712L155.7011999130249,109.81527709288639L164.3512665748596,127.39439911016487L173.00133323669434,147.13816626492553L181.65139989852904,168.58281726456164L190.30146656036376,190.48842339798767L198.9515332221985,211.42400572330934L207.60159988403322,230.0132749440766L216.25166654586792,245.52961368984518L224.90173320770265,257.9592733699726L233.55179986953735,267.9030130996108L242.20186653137208,276.16100753702995L250.85193319320678,283.23215330282363L259.5019998550415,289.21868564026664L268.15206651687623,294.49373641203755L276.80213317871096,299.1552761553695L285.4521998405457,303.00353353702195L294.10226650238036,306.405869274913L302.7523331642151,309.3442293182418L311.4023998260498,311.8640473878498L320.05246648788454,313.9610954371892L328.7025331497192,315.75245349441104L337.35259981155394,317.2417178225759L346.0026664733887,318.62768932532305L354.6527331352234,319.77204178308637L363.30279979705807,320.8817358693453L371.9528664588928,321.7909002684389L380.6029331207275,322.64148606324216L389.25299978256226,323.2232075345184L397.903066444397,323.76445893540233L406.5531331062317,324.4202250054677L415.20319976806644,325.09636302757826L423.8532664299011,325.705008251216L432.50333309173584,326.3425065024777L441.15339975357057,326.8886372065801L449.8034664154053,327.4326254687681L458.45353307723997,327.93784989949324L467.1035997390747,328.43332017896597L475.7536664009094,328.9020725489023L484.40373306274415,329.2417136432682L493.0537997245788,329.59613442712396L501.70386638641355,329.94814202762745L510.3539330482483,330.2483754172365L519.003999710083,330.50838312475776L527.6540663719177,330.7273962388596L536.3041330337525,331.0239187971109L544.9541996955871,331.2430249345311L553.6042663574219,331.4196069632963L562.2543330192566,331.5819948916849L570.9043996810914,331.74641002617386L579.554466342926,331.9074614080473L588.2045330047607,332.0870758572667L596.8545996665954,332.15913557865383L605.5046663284302,332.28801473808056L614.1547329902648,332.41653863752913L622.8047996520996,332.56705217554264L631.4548663139343,332.6654268042639L640.1049329757691,332.74540238071046L648.7549996376038,332.860705858442L657.4050662994384,332.9618924363607L666.0551329612732,333.0479498288895L674.7051996231079,333.14518868982327L683.3552662849427,333.2469166663827L692.0053329467773,333.30976712792L700.6553996086121,333.36672410625596L709.3054662704468,333.4446336272963L717.9555329322815,333.5133918151329L726.6055995941161,333.60088279279796L735.2556662559509,333.6400377238825L743.9057329177856,333.72227955449756L752.5557995796204,333.7639165942468L761.205866241455,333.83734110797053L769.8559329032898,333.86722178967347L778.5059995651245,333.9115015912577L787.1560662269592,333.9490210462888L795.806132888794,333.9815919990939L804.4561995506286,334.0470417142732L813.1062662124634,334.1017262188072L821.7563328742981,334.1494887122367L830.4063995361329,334.1856474607546L839.0564661979676,334.23326105697447L847.7065328598022,334.25045149080074L856.3565995216369,334.2837685012114L865.0066661834717,334.3553014598506L873.6567328453064,334.36932046602436L882.3067995071411,334.39449012697355L890.9568661689758,334.4438462702544L899.6069328308106,334.444163816965L908.2569994926453,334.4908227299386L916.9070661544799,334.54515417452814L925.5571328163147,334.549472816126L934.2071994781494,334.5802661802664L942.8572661399842,334.6003972749029" fill="none"></path></g><g><path style="fill: none;" stroke="rgb(255, 112, 67)" stroke-width="2px" d="M86.50066661834717,28.934718068172117L95.15073328018188,40.18069786195076L103.80079994201661,51.12652515916113L112.45086660385132,59.31514803527193L121.10093326568604,68.41373740525898L129.75099992752075,80.08017530831853L138.40106658935548,93.16909013653952L147.05113325119018,108.7993855753254L155.7011999130249,127.13589502698767L164.3512665748596,147.75555743653143L173.00133323669434,169.83099045964443L181.65139989852904,192.086563761483L190.30146656036376,212.50903978077258L198.9515332221985,229.3421496021062L207.60159988403322,242.30658060847063L216.25166654586792,251.67508282717478L224.90173320770265,258.3875848305544L233.55179986953735,263.74179020441176L242.20186653137208,267.95703099868956L250.85193319320678,271.48204902943417L259.5019998550415,274.8499430073589L268.15206651687623,278.2213805925489L276.80213317871096,280.78345412092875L285.4521998405457,282.9807369480202L294.10226650238036,285.1612996910144L302.7523331642151,286.70648431043935L311.4023998260498,287.9180927639663L320.05246648788454,289.04097366749573L328.7025331497192,289.86939859994516L337.35259981155394,290.35460391387784L346.0026664733887,290.57238762941773L354.6527331352234,290.9068254261629L363.30279979705807,291.03578558607876L371.9528664588928,290.93315919639804L380.6029331207275,290.85124652657134L389.25299978256226,290.56811094927883L397.903066444397,290.68055217310246L406.5531331062317,290.75937287832636L415.20319976806644,290.61224368953697L423.8532664299011,290.48021930787047L432.50333309173584,290.24334504081776L441.15339975357057,289.9123956119419L449.8034664154053,289.608735577336L458.45353307723997,289.48722509713787L467.1035997390747,288.9204995510763L475.7536664009094,288.4278135697806L484.40373306274415,288.18069103579575L493.0537997245788,287.73573599407814L501.70386638641355,287.89204722184013L510.3539330482483,287.50061643262677L519.003999710083,287.0615470631993L527.6540663719177,286.7010370619592L536.3041330337525,286.37925151968085L544.9541996955871,286.0608974114794L553.6042663574219,285.86341358751974L562.2543330192566,285.70531681054416L570.9043996810914,285.4790717006575L579.554466342926,285.0076665150956L588.2045330047607,284.6453055264156L596.8545996665954,284.47323057250077L605.5046663284302,284.3713436627896L614.1547329902648,284.43482228948204L622.8047996520996,284.2342495154192L631.4548663139343,283.98188089898065L640.1049329757691,283.7626528852744L648.7549996376038,283.4921503617903L657.4050662994384,283.30224426873633L666.0551329612732,283.20508883478794L674.7051996231079,283.0084416894459L683.3552662849427,282.83962936237293L692.0053329467773,282.74063683120687L700.6553996086121,282.6319980013818L709.3054662704468,282.4661094441941L717.9555329322815,282.2776462761186L726.6055995941161,282.0554800380438L735.2556662559509,281.8793100490665L743.9057329177856,281.5464745870148L752.5557995796204,281.2776124153048L761.205866241455,281.04880120458273L769.8559329032898,281.24686567963533L778.5059995651245,281.2645497611632L787.1560662269592,281.1825551825912L795.806132888794,281.13649582092137L804.4561995506286,280.8981398349621L813.1062662124634,280.84542436979183L821.7563328742981,280.75151477944195L830.4063995361329,280.51273126355653L839.0564661979676,280.37708395760507L847.7065328598022,280.13337198380464L856.3565995216369,279.9777727631231L865.0066661834717,279.8494466282934L873.6567328453064,279.85164585858666L882.3067995071411,279.6643050201649L890.9568661689758,279.5033011322888L899.6069328308106,279.0995640073282L908.2569994926453,279.3534920233607L916.9070661544799,279.23722925883243L925.5571328163147,279.306052163195L934.2071994781494,279.11490857065655L942.8572661399842,278.7670107636138" fill="none"></path></g></g></g></g><g opacity="0.2"><g><g><g><path style="fill: none;" stroke="rgb(0, 119, 187)" stroke-width="2px" d="M86.50066661834717,18.94603697733959L95.15073328018188,35.30114319793961L103.80079994201661,52.30896200506322L112.45086660385132,62.52359904200807L121.10093326568604,70.0733440674801L129.75099992752075,83.75286629158632L138.40106658935548,98.59669152246647L147.05113325119018,113.80089482258558L155.7011999130249,132.21522119022592L164.3512665748596,153.49734656462715L173.00133323669434,176.57474248211403L181.65139989852904,200.63309292027168L190.30146656036376,223.27530699339073L198.9515332221985,242.78636422607215L207.60159988403322,257.87532778707293L216.25166654586792,268.7931784842573L224.90173320770265,276.5985030747533L233.55179986953735,282.81609797962795L242.20186653137208,288.5467411708229L250.85193319320678,293.83822562078234L259.5019998550415,298.19815583077013L268.15206651687623,302.40613899190134L276.80213317871096,306.14749373639694L285.4521998405457,308.77587402322325L294.10226650238036,311.5093486994034L302.7523331642151,313.7517568524715L311.4023998260498,315.64376804473795L320.05246648788454,317.1066642917357L328.7025331497192,318.4394889301499L337.35259981155394,319.47561349172935L346.0026664733887,320.7066461198405L354.6527331352234,321.48857024204364L363.30279979705807,322.5462768662583L371.9528664588928,323.1546468019579L380.6029331207275,323.9173647188915L389.25299978256226,324.09578972643254L397.903066444397,324.5763360283542L406.5531331062317,325.4038741044783L415.20319976806644,326.1105700569782L423.8532664299011,326.6179760846386L432.50333309173584,327.29875387809193L441.15339975357057,327.70783326207663L449.8034664154053,328.24860786165743L458.45353307723997,328.6956865453622L467.1035997390747,329.17652559804634L475.7536664009094,329.6052011037337L484.40373306274415,329.75117528478535L493.0537997245788,330.12776560288773L501.70386638641355,330.4761534283708L510.3539330482483,330.69872550164393L519.003999710083,330.89839468603657L527.6540663719177,331.05591591001087L536.3041330337525,331.4687026344866L544.9541996955871,331.57168414066075L553.6042663574219,331.6844800064439L562.2543330192566,331.82557678426747L570.9043996810914,331.9930327279073L579.554466342926,332.14903848085737L588.2045330047607,332.3564975310957L596.8545996665954,332.2672251607346L605.5046663284302,332.4813334772206L614.1547329902648,332.609324486702L622.8047996520996,332.7928224825629L631.4548663139343,332.8129887473458L640.1049329757691,332.8653657453803L648.7549996376038,333.0336610750393L657.4050662994384,333.11367230323873L666.0551329612732,333.1770359176827L674.7051996231079,333.291046981224L683.3552662849427,333.3995086312217L692.0053329467773,333.40404282022604L700.6553996086121,333.45215957375984L709.3054662704468,333.5614979088568L717.9555329322815,333.61652909688775L726.6055995941161,333.7321192592956L735.2556662559509,333.6987701205093L743.9057329177856,333.8456423004202L752.5557995796204,333.82637215387064L761.205866241455,333.9474778785562L769.8559329032898,333.91204281222787L778.5059995651245,333.9779212936341L787.1560662269592,334.0053002288354L795.806132888794,334.0304484283016L804.4561995506286,334.14521628704205L813.1062662124634,334.18375297560823L821.7563328742981,334.2211324523809L830.4063995361329,334.2398855835314L839.0564661979676,334.30468145130425L847.7065328598022,334.27623714154015L856.3565995216369,334.3337440168275L865.0066661834717,334.46260089780935L873.6567328453064,334.390348975285L882.3067995071411,334.4322446183973L890.9568661689758,334.5178804851757L899.6069328308106,334.44464013703094L908.2569994926453,334.560811099399L916.9070661544799,334.62665134141236L925.5571328163147,334.5559507785228L934.2071994781494,334.626456226477L942.8572661399842,334.6305939168576" fill="none"></path></g><g><path style="fill: none;" stroke="rgb(255, 112, 67)" stroke-width="2px" d="M86.50066661834717,28.934718068172117L95.15073328018188,46.92828573821794L103.80079994201661,61.63451936448308L112.45086660385132,68.94496853757823L121.10093326568604,80.29285568671412L129.75099992752075,96.219058845895L138.40106658935548,111.88644776353289L147.05113325119018,131.58850637591132L155.7011999130249,154.17868478459368L164.3512665748596,178.37335301676816L173.00133323669434,202.74391744154616L181.65139989852904,225.34880986713839L190.30146656036376,243.0760708821227L198.9515332221985,254.55883651959948L207.60159988403322,261.7379879160353L216.25166654586792,265.72122876162416L224.90173320770265,268.45349732973796L233.55179986953735,271.77173883303334L242.20186653137208,274.27925004059773L250.85193319320678,276.76925387494043L259.5019998550415,279.90159927093623L268.15206651687623,283.27842603174406L276.80213317871096,284.626513829826L285.4521998405457,286.27663515974746L294.10226650238036,288.43212830699895L302.7523331642151,289.02425465007025L311.4023998260498,289.7355023440827L320.05246648788454,290.7252932989032L328.7025331497192,291.11203523552297L337.35259981155394,291.08241161661124L346.0026664733887,290.89906313050807L354.6527331352234,291.4084820547388L363.30279979705807,291.22922581055735L371.9528664588928,290.7792196192278L380.6029331207275,290.7283775253516L389.25299978256226,290.14340759064106L397.903066444397,290.8492140070982L406.5531331062317,290.87760393543056L415.20319976806644,290.39154990717236L423.8532664299011,290.28218273581194L432.50333309173584,289.8880336407137L441.15339975357057,289.41597146902626L449.8034664154053,289.1532455256463L458.45353307723997,289.30495937689335L467.1035997390747,288.0704112321313L475.7536664009094,287.68878459791375L484.40373306274415,287.8100072348417L493.0537997245788,287.0683034315266L501.70386638641355,288.126514063478L510.3539330482483,286.91347024881463L519.003999710083,286.4029430090635L527.6540663719177,286.16027206010165L536.3041330337525,285.89657320626475L544.9541996955871,285.5833662491781L553.6042663574219,285.5671878515805L562.2543330192566,285.46817164508104L570.9043996810914,285.1397040358278L579.554466342926,284.3005587367527L588.2045330047607,284.10176404339575L596.8545996665954,284.2151181416285L605.5046663284302,284.21851329822294L614.1547329902648,284.53004022952064L622.8047996520996,283.93339035432496L631.4548663139343,283.60332797432284L640.1049329757691,283.43381086471504L648.7549996376038,283.0863965765642L657.4050662994384,283.0173851291554L666.0551329612732,283.05935568386536L674.7051996231079,282.7134709714328L683.3552662849427,282.5864108717635L692.0053329467773,282.59214803445775L700.6553996086121,282.4690397566443L709.3054662704468,282.2172766084126L717.9555329322815,281.9949515240054L726.6055995941161,281.72223068093166L735.2556662559509,281.6150550656004L743.9057329177856,281.0472213939373L752.5557995796204,280.8743191577398L761.205866241455,280.7055843884995L769.8559329032898,281.5439623922142L778.5059995651245,281.291075883455L787.1560662269592,281.0595633147333L795.806132888794,281.0674067784166L804.4561995506286,280.54060585602315L813.1062662124634,280.7663511720365L821.7563328742981,280.6106503939171L830.4063995361329,280.1545559897284L839.0564661979676,280.17361299867787L847.7065328598022,279.76780402310396L856.3565995216369,279.74437393210087L865.0066661834717,279.65695742604873L873.6567328453064,279.8549447040265L882.3067995071411,279.3832937625323L890.9568661689758,279.2617953004748L899.6069328308106,278.49395831988716L908.2569994926453,279.73438404740943L916.9070661544799,279.06283511204015L925.5571328163147,279.4092865197388L934.2071994781494,278.8281931818488L942.8572661399842,278.2451640530497" fill="none"></path></g></g></g></g></g></g><g transform="translate(30, 378)" clip-path="url(#clip_1)"><clipPath id="clip_1"><rect width="1038" height="21"></rect></clipPath><g><g><line x1="0" y1="0" x2="0" y2="5" style="visibility: inherit;" fill="rgb(0, 0, 0)" stroke="rgb(204, 204, 204)" stroke-width="1px"></line><line x1="86.50066661834717" y1="0" x2="86.50066661834717" y2="5" style="visibility: inherit;" fill="rgb(0, 0, 0)" stroke="rgb(204, 204, 204)" stroke-width="1px"></line><line x1="173.00133323669434" y1="0" x2="173.00133323669434" y2="5" style="visibility: inherit;" fill="rgb(0, 0, 0)" stroke="rgb(204, 204, 204)" stroke-width="1px"></line><line x1="259.5019998550415" y1="0" x2="259.5019998550415" y2="5" style="visibility: inherit;" fill="rgb(0, 0, 0)" stroke="rgb(204, 204, 204)" stroke-width="1px"></line><line x1="346.0026664733887" y1="0" x2="346.0026664733887" y2="5" style="visibility: inherit;" fill="rgb(0, 0, 0)" stroke="rgb(204, 204, 204)" stroke-width="1px"></line><line x1="432.50333309173584" y1="0" x2="432.50333309173584" y2="5" style="visibility: inherit;" fill="rgb(0, 0, 0)" stroke="rgb(204, 204, 204)" stroke-width="1px"></line><line x1="519.003999710083" y1="0" x2="519.003999710083" y2="5" style="visibility: inherit;" fill="rgb(0, 0, 0)" stroke="rgb(204, 204, 204)" stroke-width="1px"></line><line x1="605.5046663284302" y1="0" x2="605.5046663284302" y2="5" style="visibility: inherit;" fill="rgb(0, 0, 0)" stroke="rgb(204, 204, 204)" stroke-width="1px"></line><line x1="692.0053329467773" y1="0" x2="692.0053329467773" y2="5" style="visibility: inherit;" fill="rgb(0, 0, 0)" stroke="rgb(204, 204, 204)" stroke-width="1px"></line><line x1="778.5059995651245" y1="0" x2="778.5059995651245" y2="5" style="visibility: inherit;" fill="rgb(0, 0, 0)" stroke="rgb(204, 204, 204)" stroke-width="1px"></line><line x1="865.0066661834717" y1="0" x2="865.0066661834717" y2="5" style="visibility: inherit;" fill="rgb(0, 0, 0)" stroke="rgb(204, 204, 204)" stroke-width="1px"></line><line x1="951.5073328018188" y1="0" x2="951.5073328018188" y2="5" style="visibility: inherit;" fill="rgb(0, 0, 0)" stroke="rgb(204, 204, 204)" stroke-width="1px"></line><line x1="1038.007999420166" y1="0" x2="1038.007999420166" y2="5" style="visibility: inherit;" fill="rgb(0, 0, 0)" stroke="rgb(204, 204, 204)" stroke-width="1px"></line></g><g transform="translate(0, 8)"><text style="text-anchor: middle; visibility: hidden; font-family: &quot;Helvetica Neue&quot;, sans-serif; font-size: 12px; font-weight: 200;" x="0" y="0" dx="0em" dy="0.95em" fill="rgb(50, 49, 63)" stroke="none" stroke-width="1px">-10</text><text style="text-anchor: middle; visibility: inherit; font-family: &quot;Helvetica Neue&quot;, sans-serif; font-size: 12px; font-weight: 200;" x="86.50066661834717" y="0" dx="0em" dy="0.95em" fill="rgb(50, 49, 63)" stroke="none" stroke-width="1px">0</text><text style="text-anchor: middle; visibility: inherit; font-family: &quot;Helvetica Neue&quot;, sans-serif; font-size: 12px; font-weight: 200;" x="173.00133323669434" y="0" dx="0em" dy="0.95em" fill="rgb(50, 49, 63)" stroke="none" stroke-width="1px">10</text><text style="text-anchor: middle; visibility: inherit; font-family: &quot;Helvetica Neue&quot;, sans-serif; font-size: 12px; font-weight: 200;" x="259.5019998550415" y="0" dx="0em" dy="0.95em" fill="rgb(50, 49, 63)" stroke="none" stroke-width="1px">20</text><text style="text-anchor: middle; visibility: inherit; font-family: &quot;Helvetica Neue&quot;, sans-serif; font-size: 12px; font-weight: 200;" x="346.0026664733887" y="0" dx="0em" dy="0.95em" fill="rgb(50, 49, 63)" stroke="none" stroke-width="1px">30</text><text style="text-anchor: middle; visibility: inherit; font-family: &quot;Helvetica Neue&quot;, sans-serif; font-size: 12px; font-weight: 200;" x="432.50333309173584" y="0" dx="0em" dy="0.95em" fill="rgb(50, 49, 63)" stroke="none" stroke-width="1px">40</text><text style="text-anchor: middle; visibility: inherit; font-family: &quot;Helvetica Neue&quot;, sans-serif; font-size: 12px; font-weight: 200;" x="519.003999710083" y="0" dx="0em" dy="0.95em" fill="rgb(50, 49, 63)" stroke="none" stroke-width="1px">50</text><text style="text-anchor: middle; visibility: inherit; font-family: &quot;Helvetica Neue&quot;, sans-serif; font-size: 12px; font-weight: 200;" x="605.5046663284302" y="0" dx="0em" dy="0.95em" fill="rgb(50, 49, 63)" stroke="none" stroke-width="1px">60</text><text style="text-anchor: middle; visibility: inherit; font-family: &quot;Helvetica Neue&quot;, sans-serif; font-size: 12px; font-weight: 200;" x="692.0053329467773" y="0" dx="0em" dy="0.95em" fill="rgb(50, 49, 63)" stroke="none" stroke-width="1px">70</text><text style="text-anchor: middle; visibility: inherit; font-family: &quot;Helvetica Neue&quot;, sans-serif; font-size: 12px; font-weight: 200;" x="778.5059995651245" y="0" dx="0em" dy="0.95em" fill="rgb(50, 49, 63)" stroke="none" stroke-width="1px">80</text><text style="text-anchor: middle; visibility: inherit; font-family: &quot;Helvetica Neue&quot;, sans-serif; font-size: 12px; font-weight: 200;" x="865.0066661834717" y="0" dx="0em" dy="0.95em" fill="rgb(50, 49, 63)" stroke="none" stroke-width="1px">90</text><text style="text-anchor: middle; visibility: inherit; font-family: &quot;Helvetica Neue&quot;, sans-serif; font-size: 12px; font-weight: 200;" x="951.5073328018188" y="0" dx="0em" dy="0.95em" fill="rgb(50, 49, 63)" stroke="none" stroke-width="1px">100</text><text style="text-anchor: middle; visibility: hidden; font-family: &quot;Helvetica Neue&quot;, sans-serif; font-size: 12px; font-weight: 200;" x="1038.007999420166" y="0" dx="0em" dy="0.95em" fill="rgb(50, 49, 63)" stroke="none" stroke-width="1px">110</text></g><line x1="0" y1="0" x2="1038.007999420166" y2="0" fill="rgb(0, 0, 0)" stroke="rgb(204, 204, 204)" stroke-width="1px"></line></g></g></g></g></svg>